{"glyphs":{"0":{"ha":592,"x_min":0,"x_max":0,"o":"m 485 635 b 239 564 343 619 318 610 b 0 193 97 478 4 342 l 0 183 b 157 -7 0 76 42 -7 b 479 131 250 -7 372 15 b 590 356 543 201 586 297 l 590 365 b 517 572 590 410 575 514 b 507 575 514 574 511 575 b 500 563 503 575 500 571 b 503 539 500 556 501 549 l 504 533 b 528 444 508 513 528 488 l 528 433 b 526 421 528 429 528 425 b 189 104 497 236 335 108 b 133 153 157 106 143 121 b 124 224 126 174 124 197 b 163 360 124 268 135 317 b 449 596 236 476 314 556 b 507 626 481 601 507 617 b 485 635 507 632 500 635 z "},"1":{"ha":333,"x_min":0,"x_max":0,"o":"m 67 499 b 274 553 156 526 219 549 b -37 -54 107 364 -15 65 b -19 -104 -31 -81 -26 -104 b -8 -89 -15 -104 -12 -99 b 364 535 58 61 186 301 b 374 546 367 536 369 540 b 389 585 383 561 389 574 b 331 625 389 608 368 625 b 92 542 228 603 189 590 b 61 507 76 532 61 518 b 67 499 61 503 63 500 z "},"2":{"ha":514,"x_min":0,"x_max":0,"o":"m 101 546 b 260 594 150 569 210 590 l 269 594 b 363 519 318 594 363 563 b 354 486 363 508 360 497 b 4 104 271 347 138 214 b -61 53 -18 86 -40 68 b -64 33 -62 43 -64 38 b -4 -25 -64 -1 -42 -25 b 13 -24 3 -25 8 -25 b 51 0 25 -19 42 -10 b 175 56 83 32 138 46 b 454 86 193 60 343 86 b 574 58 511 86 558 79 b 585 53 576 54 581 53 b 607 74 594 53 607 63 b 601 88 607 79 606 83 b 554 117 592 97 569 111 b 342 143 506 135 425 143 b 215 136 297 143 253 140 l 229 150 b 440 419 303 228 385 314 b 461 500 454 446 461 472 b 336 660 461 579 407 653 l 314 661 b 93 590 224 661 133 617 b 78 567 83 581 78 574 b 93 550 78 557 88 554 l 99 546 l 101 546 z "},"3":{"ha":565,"x_min":0,"x_max":0,"o":"m 160 533 b 375 574 233 565 301 569 l 382 574 b 457 549 397 574 457 565 b 451 539 457 544 456 542 b 344 446 436 515 369 460 b 242 400 288 404 275 407 b 158 361 213 393 182 389 b 135 300 154 354 142 339 b 133 290 133 297 133 294 b 147 275 133 281 138 275 b 169 279 154 275 161 276 b 328 318 213 297 257 313 b 419 257 371 318 419 301 l 419 247 b 168 79 404 149 271 79 b 82 103 135 79 103 86 b 28 208 53 125 28 163 b 67 308 28 240 39 271 b 101 356 72 321 101 343 b 89 365 101 360 97 364 b -24 176 6 317 -24 244 b 40 24 -24 108 6 47 b 193 -15 79 -3 133 -15 b 456 89 290 -15 396 18 b 535 257 499 139 531 196 b 456 410 531 322 501 378 b 553 579 515 461 553 529 b 485 649 553 617 533 643 b 465 650 478 650 472 650 l 447 650 b 147 564 347 650 236 614 b 128 540 135 554 128 547 b 146 532 128 535 133 532 b 160 533 151 532 156 532 z "},"4":{"ha":553,"x_min":0,"x_max":0,"o":"m 410 731 b -35 229 299 658 33 347 b -36 214 -36 225 -36 221 b 17 151 -36 182 -15 151 b 49 161 28 151 39 154 b 324 224 143 193 233 208 b 199 -149 260 111 203 -26 b 219 -190 199 -176 210 -190 b 238 -165 228 -190 233 -182 b 426 238 281 7 354 128 b 564 260 472 244 518 250 b 619 293 593 264 619 282 b 600 301 619 299 613 301 b 538 304 581 303 560 304 l 471 304 b 553 440 500 349 526 392 b 519 456 549 450 538 456 b 465 433 503 456 481 449 b 369 300 450 418 413 368 b 136 278 285 296 201 288 b 414 683 172 369 325 597 b 428 717 421 690 428 706 b 415 731 428 726 424 731 z "},"5":{"ha":604,"x_min":0,"x_max":0,"o":"m 660 549 b 679 557 672 549 679 551 b 661 581 679 564 674 571 b 381 660 576 626 476 660 b 343 657 368 660 356 658 b 218 578 286 657 242 621 b 240 526 222 568 219 542 b 165 417 219 489 194 450 b 135 394 153 411 144 406 b 113 332 129 388 117 371 l 113 326 b 129 307 113 314 118 307 b 150 310 135 307 140 308 b 293 335 185 325 244 335 b 328 332 306 335 318 333 b 428 244 375 321 428 296 b 185 81 428 146 292 81 b 88 106 147 81 114 88 b 19 224 50 132 19 172 b 50 310 19 250 28 278 b 83 356 56 322 83 343 b 69 364 83 360 79 363 b -31 200 -4 321 -31 260 b 51 28 -31 126 8 54 b 226 -15 100 -1 161 -15 b 483 85 326 -15 429 18 b 546 233 521 129 546 179 l 546 249 b 450 403 539 315 501 369 b 328 436 410 421 376 436 b 278 431 310 436 293 435 b 365 571 304 485 339 536 b 431 585 386 581 418 585 l 444 585 b 646 550 518 581 574 579 z "},"6":{"ha":599,"x_min":0,"x_max":0,"o":"m 650 653 b 576 660 629 658 604 660 b 340 625 490 660 381 639 b 64 386 278 603 139 533 b 17 204 36 332 17 267 b 86 36 17 142 36 82 b 222 -12 126 -1 172 -12 b 288 -7 243 -12 265 -11 b 565 267 428 15 525 139 b 576 329 572 292 576 313 b 431 444 576 408 514 444 b 174 349 347 444 251 410 b 346 549 218 443 297 518 b 600 621 397 582 508 621 l 614 621 b 629 619 619 621 625 621 b 638 618 631 618 633 618 b 651 636 647 618 651 624 l 651 643 b 650 653 651 647 651 650 z m 456 346 b 224 86 456 250 319 86 b 208 88 217 86 213 86 b 144 217 163 108 144 161 b 147 256 144 229 146 243 b 388 376 206 336 314 376 b 456 357 418 376 440 369 z "},"7":{"ha":454,"x_min":0,"x_max":0,"o":"m 515 635 b 79 614 403 628 282 640 b 64 597 69 610 64 604 b 92 574 64 588 74 579 b 325 547 196 544 228 554 b 372 532 346 546 363 542 b -29 -161 203 354 40 64 l -28 -172 b -18 -214 -26 -194 -25 -214 b -6 -200 -15 -214 -11 -210 b 547 586 161 124 332 376 b 549 599 549 589 549 593 b 525 632 549 618 540 629 z "},"8":{"ha":604,"x_min":0,"x_max":0,"o":"m 554 604 b 357 653 519 633 440 653 b 153 588 275 653 193 633 l 147 582 b 117 504 136 571 117 546 l 117 494 b 118 485 117 492 117 489 b 174 400 122 451 142 424 b 31 281 118 368 68 331 b -25 140 -8 226 -25 179 b 50 25 -25 89 4 51 b 189 -10 88 4 138 -6 l 208 -10 b 460 68 304 -10 388 18 b 554 232 514 106 554 160 b 551 265 554 243 553 254 b 364 428 540 335 450 383 b 751 561 493 494 615 524 b 775 581 764 568 775 575 b 764 588 775 585 771 586 b 381 493 718 588 513 544 b 301 463 354 483 328 474 b 222 522 269 481 240 500 b 219 533 221 528 219 532 b 296 590 219 560 269 583 b 385 599 314 596 347 599 b 522 578 442 599 501 593 b 547 571 532 572 540 571 b 567 585 560 571 567 575 b 554 604 567 590 563 597 z m 408 257 b 426 225 421 249 426 238 b 331 122 426 186 375 133 b 219 106 288 111 250 106 b 89 144 163 106 121 122 b 240 357 89 233 174 313 b 408 257 307 319 378 292 z "},"9":{"ha":486,"x_min":0,"x_max":0,"o":"m 65 -169 b 83 -206 65 -185 65 -206 b 104 -192 90 -206 97 -201 b 333 251 157 -19 236 103 b 406 354 356 285 379 319 l 478 454 b 556 575 522 515 556 564 l 553 586 b 543 590 551 589 547 590 b 525 579 533 590 532 589 l 450 486 b 203 361 354 365 268 361 b 175 399 181 361 175 375 b 286 531 175 444 244 506 b 532 625 364 579 439 608 b 550 636 536 625 550 629 b 499 656 550 653 506 656 l 479 654 b 42 299 285 654 42 515 b 86 224 42 249 58 235 b 119 219 94 221 106 219 b 240 247 158 219 214 231 l 214 214 b 65 -169 163 118 65 -78 z "}," ":{"ha":486,"x_min":0,"x_max":0,"o":""},"N":{"ha":549,"x_min":0,"x_max":0,"o":"m -169 625 b -179 617 -174 622 -176 619 b -189 600 -186 613 -189 607 b -175 586 -189 593 -185 588 l -78 586 b -1 551 -57 586 -11 565 b 47 367 47 497 47 444 l 47 331 b -3 189 47 286 18 232 b 10 181 -3 183 1 181 b 33 199 19 181 28 189 l 43 213 b 53 222 47 217 50 221 b 64 208 60 222 64 214 l 64 63 b 60 -65 64 24 63 -37 b 54 -97 58 -83 56 -92 l 51 -107 b 50 -121 50 -111 50 -115 b 64 -144 50 -131 53 -133 b 75 -149 67 -147 71 -149 b 85 -146 79 -149 83 -147 b 319 39 176 -28 278 28 b 364 53 332 43 364 44 b 321 69 364 63 331 69 b 239 58 278 69 261 65 b 169 36 217 51 185 36 b 133 160 151 36 133 58 l 133 393 b 146 428 133 408 133 428 b 171 413 153 428 161 422 b 456 67 308 279 356 207 b 481 31 465 51 476 31 b 506 72 488 31 501 65 b 513 106 510 82 513 93 b 499 149 513 119 508 133 b 481 224 481 167 481 206 l 481 464 b 508 558 481 513 496 538 l 513 564 b 546 592 519 576 536 592 l 558 594 b 581 613 571 597 578 603 l 583 625 l 485 625 b 336 642 447 625 390 625 b 318 618 329 638 318 629 b 329 611 318 614 325 611 b 350 604 333 611 346 604 b 411 417 404 583 411 529 l 411 368 b 383 267 411 325 410 282 b 213 493 340 311 283 375 b 188 567 206 510 188 544 b 263 617 188 606 263 603 b 235 635 263 628 242 635 l 97 625 z "},"n":{"ha":551,"x_min":0,"x_max":0,"o":"m -11 625 b -35 592 -28 618 -35 603 l -3 592 b 17 582 7 592 13 586 b 35 494 28 571 35 514 l 35 432 b -26 272 35 354 24 322 b -40 235 -36 260 -40 244 b -37 225 -40 228 -39 225 b 51 297 -17 225 18 235 b 58 278 56 288 58 281 b 1 204 58 246 28 221 l -6 194 b 15 185 -6 185 6 185 b 53 196 28 185 40 189 b -32 51 46 113 19 89 l -11 39 b 10 40 -7 40 0 40 b 269 -19 93 40 197 -19 b 290 0 274 -19 289 -17 b 218 46 264 18 233 35 b 115 318 140 117 115 213 b 140 404 115 321 124 404 b 213 349 172 404 192 376 l 217 342 b 235 282 224 335 225 300 b 385 53 272 200 363 97 b 422 0 392 38 407 0 b 458 104 435 0 458 44 b 456 139 458 115 457 126 b 418 208 440 160 418 175 l 418 310 b 424 428 422 328 424 410 b 488 596 424 485 435 596 l 506 596 b 551 614 528 596 551 601 l 536 625 l 397 625 l 300 640 b 289 625 293 640 289 632 b 350 565 289 601 343 608 b 358 417 360 515 358 465 b 335 308 358 350 356 308 b 296 339 325 308 313 318 b 163 528 242 404 194 476 b 157 546 163 532 157 536 b 163 560 157 550 158 556 b 188 574 168 564 176 569 l 221 588 b 263 610 243 597 263 604 b 239 625 263 621 246 625 z "},"l":{"ha":468,"x_min":0,"x_max":0,"o":"m 265 15 b 444 -15 382 8 417 -4 l 451 -15 b 468 0 458 -15 468 -7 b 219 85 357 61 263 74 b 172 118 204 89 176 92 b 161 314 165 156 161 167 l 161 368 b 189 572 161 493 167 528 b 247 613 200 588 226 603 l 261 643 l 258 650 b 113 625 225 644 178 625 l -8 625 b -33 608 -21 625 -29 619 b -15 592 -33 601 -22 596 b 60 543 6 579 50 567 b 69 465 69 514 69 497 l 69 417 b -25 268 69 375 14 279 l -32 250 l -32 246 l -33 244 b -28 240 -33 243 -32 242 l -22 240 b 61 285 10 240 40 269 b 78 144 71 246 78 193 b 69 79 78 115 75 94 b -6 -15 58 44 10 3 b -14 -36 -10 -19 -14 -26 b -6 -49 -14 -42 -11 -46 b -1 -51 -6 -50 -4 -51 b 246 15 18 -51 113 15 z "},"E":{"ha":417,"x_min":0,"x_max":0,"o":"m 300 0 b 331 -58 310 -6 331 -26 b 329 -74 331 -65 331 -69 l 351 -87 b 438 232 363 -39 419 176 b 419 257 431 257 426 243 b 261 79 375 133 321 90 b 161 97 218 94 188 97 b 129 94 149 97 139 96 b 122 106 125 99 122 101 l 122 219 b 347 338 215 231 328 303 b 382 413 351 344 378 388 b 172 297 315 374 243 332 l 222 338 b 257 381 238 349 253 365 l 236 383 b 124 331 199 357 147 331 b 108 360 111 331 108 344 l 108 490 b 110 504 108 494 108 500 b 115 528 111 511 111 521 b 196 581 126 579 178 581 b 267 572 224 579 247 576 b 317 485 317 553 317 508 b 319 472 317 476 318 472 b 346 517 324 472 328 485 b 375 568 353 532 363 547 b 401 640 379 578 401 614 b 397 657 401 647 400 653 l 389 651 b 306 625 365 635 350 625 l -131 625 b -139 613 -133 624 -136 619 b -142 604 -140 610 -142 607 b -69 596 -142 599 -131 596 l -36 596 b 22 517 4 596 22 526 b 28 447 25 483 28 467 l 28 424 b -53 285 28 364 -14 314 l -64 260 b 28 304 -31 265 11 283 l 32 288 l 35 274 b 38 243 36 264 38 254 b -4 10 38 165 25 103 b -15 -7 -6 6 -15 -3 l -17 -21 b 0 -37 -17 -36 -15 -37 b 57 -3 15 -37 44 -8 b 219 21 100 18 151 21 b 300 0 246 19 274 15 z "},"A":{"ha":492,"x_min":0,"x_max":0,"o":"m -89 44 b -92 25 -90 39 -92 35 b 96 49 -35 42 31 49 l 125 49 b 153 46 136 49 146 47 b 213 32 174 42 185 39 b 219 46 217 36 219 42 b 214 57 219 50 218 53 l 206 65 b 131 146 176 76 131 107 l 132 168 b 321 247 171 172 293 247 b 354 192 332 247 347 210 l 393 61 b 363 40 393 43 379 42 b 349 39 357 39 353 39 l 338 39 b 251 49 306 39 278 44 b 242 25 244 46 242 38 b 510 -101 389 7 417 -79 b 525 -106 514 -101 521 -106 b 524 -97 524 -103 524 -100 l 524 -85 b 336 453 431 175 392 276 b 313 525 328 468 313 522 l 311 542 b 314 550 311 544 313 547 b 322 563 315 554 318 558 b 414 586 350 583 379 586 b 458 601 432 586 447 592 b 465 614 463 606 465 610 b 442 625 465 621 457 625 l 217 625 l 97 640 b 90 635 96 640 94 639 l 69 614 b 65 608 67 611 65 610 b 174 563 65 582 174 594 l 174 554 b 38 347 129 424 121 418 b 46 344 39 346 42 344 b 94 365 61 344 85 354 b 57 261 79 322 72 294 b -28 188 28 192 -28 203 b -4 175 -28 178 -15 175 b 7 176 1 175 6 175 b 14 165 11 175 14 171 b -28 94 14 158 -7 113 b -74 63 -43 79 -58 72 b -89 44 -81 58 -87 49 z m 131 243 b 135 265 131 256 131 258 l 213 449 b 238 496 219 467 228 497 b 290 346 253 492 290 361 b 181 290 290 324 203 294 b 172 281 175 289 172 285 b 206 269 172 275 179 269 l 215 269 b 135 240 194 260 153 240 b 131 243 132 240 131 242 z "},"B":{"ha":486,"x_min":0,"x_max":0,"o":"m 365 350 b 404 464 383 372 404 401 b 365 556 404 493 393 524 l 350 571 b 492 592 410 571 474 576 b 513 626 501 599 513 614 b 510 635 513 631 511 633 l 506 633 b 422 625 485 628 471 625 l -151 625 b -175 607 -161 625 -175 617 b -172 601 -175 606 -174 603 b -69 583 -154 590 -86 583 l -57 583 b 42 515 -8 583 21 558 l 42 376 b -29 257 42 343 -1 268 b -57 229 -40 251 -57 244 b -54 219 -57 228 -56 225 b -37 214 -50 215 -44 214 b 38 256 -14 214 17 239 b 43 260 39 257 42 258 l 43 181 b 88 29 43 110 58 60 b 139 -10 110 7 121 1 b 347 -54 176 -32 236 -53 l 301 -39 b 243 -10 286 -33 265 -25 b 296 -6 264 -10 281 -7 l 300 -4 b 356 10 321 0 335 0 b 458 165 422 36 458 100 b 351 335 458 239 422 308 b 365 350 356 338 360 343 z m 190 269 b 203 272 194 271 199 271 b 217 275 207 274 211 274 b 185 254 204 267 194 260 b 161 243 175 249 167 244 b 146 229 156 238 146 235 b 150 224 146 228 147 226 b 288 300 176 224 260 264 b 292 301 289 300 290 300 b 381 208 354 300 381 257 b 357 131 381 179 372 154 b 222 68 336 99 285 68 b 140 88 193 68 167 75 b 113 176 125 114 113 143 l 113 201 b 115 224 113 206 114 214 l 114 256 b 190 269 140 260 156 263 z m 115 314 b 124 508 115 379 119 446 b 174 564 133 532 153 553 b 228 571 192 568 207 571 l 261 571 b 326 460 310 543 326 503 b 251 374 311 411 272 379 b 239 361 246 368 239 365 b 243 356 239 358 240 357 l 249 356 b 308 385 269 356 289 365 b 293 361 304 376 300 368 b 281 346 288 354 283 349 b 115 304 243 324 175 308 z "},"D":{"ha":531,"x_min":0,"x_max":0,"o":"m -151 625 b -175 607 -161 625 -175 617 b -172 601 -175 606 -174 603 b -69 583 -154 590 -86 583 l -57 583 b 42 515 -8 583 21 558 l 42 376 b -29 257 42 343 -1 268 b -57 229 -40 251 -57 244 b -54 219 -57 228 -56 225 b -37 214 -50 215 -44 214 b 38 256 -14 214 17 239 b 43 260 39 257 42 258 l 43 181 b 88 29 43 107 56 61 b 139 -10 110 7 121 1 b 347 -54 176 -32 236 -53 l 301 -39 b 256 -17 288 -35 272 -26 l 264 -17 b 486 160 356 -17 453 72 b 508 269 501 197 508 231 l 508 276 b 364 571 508 404 469 510 b 492 592 418 575 476 576 b 513 626 501 599 513 614 b 510 635 513 631 511 633 l 506 633 b 422 625 485 628 471 625 z m 115 314 b 124 508 115 379 119 446 b 144 563 131 526 133 544 b 153 571 146 565 149 568 l 178 572 b 399 453 278 572 356 526 b 410 428 403 443 406 438 l 410 422 b 347 325 410 367 369 332 b 335 313 342 319 335 317 b 339 307 335 310 336 308 l 346 307 b 424 343 369 307 403 317 l 424 331 b 304 238 397 290 326 244 b 289 224 299 232 289 229 b 293 218 289 222 290 221 l 307 217 b 425 257 346 217 399 231 b 268 78 418 151 336 97 b 224 69 257 74 242 69 b 121 126 194 69 160 82 b 113 176 115 142 113 158 l 113 201 b 115 224 113 206 114 214 z "},"I":{"ha":300,"x_min":0,"x_max":0,"o":"m -103 601 b 0 583 -85 590 -17 583 l 13 583 b 101 533 56 583 81 565 b 104 500 103 524 104 513 l 104 417 b 64 322 104 372 79 338 b -15 268 38 293 6 275 l -17 265 b -22 253 -21 258 -22 254 b -15 243 -22 249 -19 244 b 14 236 -6 239 4 236 b 89 268 42 236 76 250 b 104 233 104 267 104 254 l 104 178 b 39 -21 104 88 101 46 l 29 -31 b 28 -35 28 -32 28 -33 b 43 -46 28 -40 38 -46 b 104 -14 64 -46 82 -32 b 268 56 136 13 203 51 b 326 69 286 57 322 64 b 336 99 336 79 336 89 l 336 104 l 331 104 b 217 131 293 104 256 104 b 190 172 204 140 194 157 b 188 257 189 206 188 233 l 188 383 b 189 454 188 404 188 428 b 208 563 189 492 192 544 b 278 608 218 572 278 594 b 268 632 278 625 275 628 l 165 625 l -82 625 b -106 607 -92 625 -106 617 b -103 601 -106 606 -104 603 z "},"J":{"ha":315,"x_min":0,"x_max":0,"o":"m -68 601 b -19 583 -50 589 -35 583 l 47 583 b 136 533 90 583 115 565 b 139 500 138 524 139 513 l 139 417 b 99 322 139 372 114 338 b 19 268 72 293 40 275 l 18 265 b 13 253 14 258 13 254 b 19 243 13 249 15 244 b 49 236 29 239 39 236 b 124 268 76 236 111 250 b 136 258 131 267 135 263 b 76 185 126 215 97 190 b 64 172 71 179 64 176 b 68 167 64 169 65 168 l 76 167 b 139 189 97 167 118 174 l 139 69 b -69 -165 139 -31 64 -114 l -79 -175 b -56 -181 -81 -181 -57 -181 b 186 -94 51 -181 165 -112 b 213 -72 194 -87 203 -81 l 240 -47 b 278 0 258 -31 272 -12 b 267 4 275 3 271 4 b 250 0 263 4 257 3 l 232 -10 b 204 -25 221 -17 210 -25 b 199 -17 200 -25 199 -22 b 225 69 199 -6 204 21 b 222 171 224 103 222 136 l 222 368 b 224 454 222 399 222 428 b 243 563 224 492 226 544 b 313 608 253 572 313 594 b 303 632 313 625 310 628 l 200 625 l -47 625 b -71 607 -57 625 -71 617 b -68 601 -71 606 -69 603 z "},"F":{"ha":415,"x_min":0,"x_max":0,"o":"m 247 -110 b 121 72 158 -49 131 4 b 118 114 119 88 118 99 l 118 229 b 367 347 190 251 310 268 b 389 413 372 354 385 386 b 179 297 322 374 250 332 l 229 338 b 264 381 244 349 260 365 l 243 383 b 131 331 206 357 154 331 b 115 360 118 331 115 344 l 115 490 b 117 504 115 494 115 500 b 122 528 118 511 118 521 b 221 583 133 576 182 579 l 231 585 b 258 582 240 585 249 583 b 335 475 340 564 322 475 b 389 558 340 475 351 496 b 400 578 394 565 396 572 b 421 640 410 593 421 619 b 417 657 421 647 419 653 l 408 651 b 325 625 385 635 369 625 l -133 625 l -137 621 l -144 617 b -149 611 -147 615 -149 613 b -62 596 -149 604 -129 596 l 0 576 b 29 517 22 556 28 526 b 35 447 32 483 35 467 l 35 424 b -46 285 35 364 -7 314 l -57 260 b 35 304 -24 265 18 283 l 35 199 b 32 78 35 156 33 115 b -21 60 8 60 0 60 b 17 13 -15 47 -1 29 l 44 -12 b 71 -35 54 -21 63 -28 b 78 -40 72 -36 74 -36 b 233 -125 118 -81 179 -124 l 253 -125 b 258 -122 257 -125 258 -124 l 257 -121 b 247 -110 256 -119 253 -115 z "},"G":{"ha":542,"x_min":0,"x_max":0,"o":"m 489 361 b 271 260 429 304 292 264 b 235 224 260 254 235 235 b 238 219 235 222 236 221 l 247 219 b 417 247 281 219 358 229 l 417 142 b 283 99 399 113 354 99 b 103 285 146 99 107 188 b 228 386 125 329 204 375 b 243 400 233 392 243 394 b 239 406 243 401 242 403 l 233 406 b 107 350 194 406 139 382 b 203 517 118 418 154 468 b 339 579 219 533 251 567 b 415 485 410 568 415 513 b 418 472 415 476 417 472 b 443 513 422 472 428 483 b 474 568 453 528 458 544 b 500 640 478 578 500 614 b 496 657 500 647 499 653 l 492 653 b 417 633 481 643 463 638 b 278 625 368 629 301 625 l -110 625 b -133 611 -119 625 -133 621 b -110 593 -133 596 -119 593 b 181 567 -4 589 79 579 b 32 407 104 536 54 454 b 15 364 25 392 19 376 b -61 282 -8 326 -46 292 b -72 265 -65 275 -72 269 b -67 260 -72 263 -71 261 b 1 293 -46 263 -22 274 b 0 278 0 289 0 283 l 0 261 b 240 0 0 154 79 0 b 396 22 310 0 340 7 l 417 26 b 528 0 497 19 488 11 b 535 26 532 11 535 17 l 533 28 l 533 32 l 513 93 b 504 194 506 131 504 157 l 504 304 b 503 346 504 325 503 336 b 489 361 503 350 490 365 z "},"R":{"ha":486,"x_min":0,"x_max":0,"o":"m 43 107 b -94 -22 43 60 -17 -18 l -100 -31 b -46 -40 -85 -37 -67 -40 b 21 -25 -24 -40 0 -36 b 224 33 83 10 150 33 l 235 47 b 124 82 217 63 138 71 l 124 256 l 161 256 b 182 257 168 256 175 256 b 363 149 260 257 325 211 b 383 11 381 88 383 43 l 383 -14 b 392 -33 388 -21 386 -33 b 396 -32 393 -33 394 -33 b 406 42 401 -17 406 10 l 406 56 b 494 -85 428 1 451 -47 b 618 -135 533 -118 575 -135 b 764 -89 660 -135 708 -119 b 750 -90 760 -90 754 -90 l 738 -90 b 460 128 557 -90 482 76 l 457 133 b 313 296 419 211 385 268 l 321 301 b 328 307 324 303 326 306 b 404 464 371 340 404 392 b 365 556 404 493 393 524 l 382 571 b 522 592 442 572 506 576 b 543 626 532 599 543 614 b 540 635 543 631 542 633 l 536 633 b 453 625 515 628 501 625 l -151 625 b -175 607 -161 625 -175 617 b -172 601 -175 606 -174 603 b -69 583 -154 590 -86 583 l -57 583 b 42 515 -8 583 21 558 l 42 371 b -3 310 42 339 40 310 b -14 311 -7 311 -10 311 l -22 311 b -26 313 -25 311 -26 311 b -37 314 -29 314 -33 314 b -53 303 -43 314 -49 310 b 43 260 -26 281 17 264 z m 122 314 b 131 508 122 379 126 446 b 174 564 140 529 153 553 b 222 571 189 568 201 571 l 261 571 b 326 460 310 543 326 503 b 251 374 311 411 272 379 b 239 361 246 368 239 365 b 243 356 239 358 240 357 l 249 356 b 308 385 269 356 289 365 b 293 361 304 376 300 368 b 281 346 288 354 283 349 b 122 304 225 306 183 304 z "},"T":{"ha":486,"x_min":0,"x_max":0,"o":"m -21 568 b -29 504 -25 550 -29 522 b -25 488 -29 493 -28 488 b 122 572 -6 488 31 572 l 139 571 b 193 515 163 560 181 542 l 193 424 b 111 263 182 311 143 274 b 99 250 106 256 99 254 b 107 242 99 249 101 246 l 118 240 b 193 278 150 240 175 261 l 193 107 b 57 -22 193 60 133 -18 l 51 -31 b 106 -40 67 -37 85 -40 b 172 -25 128 -40 151 -36 b 375 33 235 10 301 33 l 386 47 b 275 82 368 63 289 71 l 275 411 l 282 508 b 289 525 282 510 288 524 b 340 571 300 549 319 571 b 435 494 424 571 435 524 b 433 476 435 488 433 481 l 433 471 b 486 568 435 471 446 494 b 513 640 490 578 513 614 b 508 657 513 647 511 653 l 500 651 b 417 625 476 635 461 625 l 86 625 b 24 676 49 625 42 639 l 22 681 b -21 568 10 668 -17 579 z "},"O":{"ha":507,"x_min":0,"x_max":0,"o":"m 519 592 b 540 626 529 599 540 614 b 538 635 540 631 539 633 l 533 633 b 450 625 513 628 499 625 l 182 625 b 100 621 150 625 111 621 b 28 625 79 621 49 624 b 72 594 54 614 65 607 b 75 579 74 589 75 583 b 71 561 75 571 74 565 b 11 438 43 531 24 489 b -26 225 -17 343 -26 269 b -7 140 -26 190 -14 140 b -10 175 -8 151 -10 163 b 1 257 -10 197 -8 224 b 236 0 17 58 114 0 b 472 313 365 0 472 69 b 392 571 472 444 440 522 b 519 592 443 571 506 578 z m 74 313 b 219 569 74 486 136 564 l 243 571 b 389 418 311 567 367 524 b 326 324 388 364 350 329 b 314 311 321 318 314 315 b 318 306 314 308 315 307 l 326 306 b 397 336 349 306 379 315 l 399 318 b 283 232 369 278 304 239 b 268 218 278 226 268 224 b 272 213 268 217 269 215 l 288 211 b 394 243 321 211 365 222 b 236 74 378 117 314 74 b 74 313 146 74 74 133 z "},"o":{"ha":514,"x_min":0,"x_max":0,"o":"m 526 592 b 546 617 533 599 546 607 b 542 625 546 619 544 622 l 243 625 b 7 322 114 625 11 556 b -97 179 -11 215 -17 194 b -64 161 -93 167 -82 161 b -17 171 -47 161 -32 164 b 15 199 -7 175 6 183 b 243 0 44 47 135 0 b 479 313 372 0 479 69 b 399 571 479 444 447 522 b 526 592 450 571 513 578 z m 81 313 b 243 571 81 499 153 571 b 400 396 319 571 379 522 b 338 311 394 347 360 317 b 325 299 332 306 325 303 b 329 293 325 296 326 294 l 338 293 b 406 319 358 293 385 301 l 406 301 b 292 217 376 261 311 224 b 276 203 286 211 276 208 b 281 197 276 201 278 200 l 297 196 b 399 225 329 196 371 204 b 243 74 378 108 317 74 b 81 313 153 74 81 126 z "},"c":{"ha":576,"x_min":0,"x_max":0,"o":"m 517 122 b 542 222 535 149 542 185 b 525 315 542 261 535 299 b 411 417 494 375 457 408 b 472 301 456 379 472 322 b 457 197 472 264 469 229 b 447 242 457 215 454 229 b 407 267 436 257 425 267 b 396 265 403 267 400 265 b 419 192 411 244 419 221 b 406 133 419 172 415 153 b 283 99 374 107 335 99 b 103 300 139 99 103 196 b 208 497 103 397 160 457 b 457 583 244 529 361 583 b 557 599 506 583 546 589 l 569 625 l 69 625 b 46 611 60 625 46 621 b 69 593 46 596 60 593 b 203 568 171 589 181 579 b 69 465 153 544 107 510 b -50 390 18 417 -17 400 b -17 372 -46 375 -33 372 b 18 378 -6 372 7 374 b 0 233 6 344 0 304 b 240 0 0 151 79 0 b 396 22 310 0 340 7 b 517 122 451 43 485 78 z "},"P":{"ha":417,"x_min":0,"x_max":0,"o":"m 43 107 b -90 -8 43 60 -14 -4 l -100 -31 b -46 -40 -85 -37 -67 -40 b 21 -25 -24 -40 0 -36 b 224 33 83 10 150 33 l 235 47 b 124 82 217 63 138 71 l 124 256 l 138 256 b 215 261 161 256 186 257 b 328 307 258 267 301 286 b 404 464 371 340 404 392 b 365 556 404 493 393 524 l 350 571 b 486 592 410 572 469 576 b 507 626 496 599 507 614 b 504 635 507 631 506 633 l 500 633 b 417 625 479 628 465 625 l -151 625 b -175 607 -161 625 -175 617 b -172 601 -175 606 -174 603 b -69 583 -154 590 -86 583 l -57 583 b 42 515 -8 583 21 558 l 42 371 b -3 310 42 339 40 310 b -14 311 -7 311 -10 311 l -22 311 b -26 313 -25 311 -26 311 b -37 314 -29 314 -33 314 b -53 303 -43 314 -49 310 b 43 260 -26 281 17 264 z m 122 314 b 131 508 122 379 126 446 b 174 564 140 529 153 553 b 228 571 192 568 207 571 l 261 571 b 326 460 310 543 326 503 b 251 374 311 411 272 379 b 239 361 246 368 239 365 b 243 356 239 358 240 357 l 249 356 b 308 385 269 356 289 365 b 293 361 304 376 300 368 b 281 346 288 354 283 349 b 122 304 225 306 183 304 z "},"S":{"ha":451,"x_min":0,"x_max":0,"o":"m -4 -35 b 71 18 18 6 42 18 b 197 0 106 18 149 0 b 353 35 251 0 299 0 b 417 176 399 64 417 111 b 397 260 417 214 414 228 b 379 286 392 269 385 276 b 240 422 339 338 276 404 b 238 414 239 421 238 418 b 256 388 238 407 243 397 l 296 343 b 274 349 289 347 281 347 b 118 397 222 360 154 357 b 99 464 103 413 99 440 b 207 567 99 514 122 567 b 318 546 244 567 283 567 b 335 506 324 542 335 528 b 321 457 335 493 332 478 l 356 457 b 417 625 368 506 399 569 b 406 660 407 646 413 644 b 331 607 383 619 358 607 b 206 625 296 607 254 625 l 188 625 b 171 624 182 625 176 625 l 83 619 b 11 625 51 621 38 621 l 17 622 b 63 597 39 613 53 607 b 68 583 67 593 68 589 b 64 572 68 579 67 576 b 21 468 43 550 21 517 b 39 374 21 431 22 406 b 44 363 40 369 42 367 b 154 232 74 308 117 250 b 161 238 158 233 161 236 b 143 260 161 243 144 250 b 110 301 138 267 125 281 b 165 279 129 289 147 282 b 314 229 214 268 269 274 b 332 161 324 218 332 204 b 196 58 332 115 278 58 b 83 97 158 58 106 65 b 63 171 76 107 63 133 b 68 208 63 182 64 196 l 32 208 l 21 163 b -18 -21 10 111 -10 33 z "},"L":{"ha":506,"x_min":0,"x_max":0,"o":"m 349 -4 b 379 -62 358 -10 379 -31 b 378 -78 379 -69 379 -74 l 400 -92 b 486 228 411 -43 468 172 b 468 253 479 253 475 239 b 272 72 413 103 347 72 l 267 72 b 215 86 249 78 236 81 b 161 118 199 90 165 94 b 154 218 156 142 154 161 l 154 292 b 217 382 188 325 204 349 b 208 385 213 383 210 385 b 183 364 201 385 193 378 b 154 332 174 354 169 344 l 154 368 b 189 572 154 493 167 528 b 247 613 200 588 226 603 l 261 643 l 258 650 b 113 625 225 644 178 625 l -8 625 b -33 608 -21 625 -29 619 b -15 592 -33 601 -22 596 b 60 543 6 579 50 567 b 69 465 69 514 69 497 l 69 417 b -25 268 69 375 14 279 l -32 250 l -32 246 l -33 244 b -28 240 -33 243 -32 242 l -22 240 b 69 293 8 240 50 278 l 69 79 b -6 -15 58 44 10 3 b -10 -29 -8 -18 -10 -22 b -6 -49 -10 -36 -8 -42 b 222 17 -6 -54 63 17 l 243 17 b 265 15 250 17 258 17 b 307 11 282 14 296 13 b 349 -4 319 8 333 3 z "},"U":{"ha":600,"x_min":0,"x_max":0,"o":"m 115 314 b 124 508 115 379 119 446 b 144 563 131 526 133 544 b 208 604 151 576 208 590 b 169 625 208 619 186 625 l -151 625 b -175 607 -161 625 -175 617 b -172 601 -175 606 -174 603 b -69 583 -154 590 -86 583 l -57 583 b 42 515 -8 583 21 558 l 42 376 b -29 257 42 343 -1 268 b -57 229 -40 251 -57 244 b -54 219 -57 228 -56 225 b -37 214 -50 215 -44 214 b 38 256 -14 214 17 239 b 43 260 39 257 42 258 l 43 181 b 88 29 43 107 56 61 b 139 -10 110 7 121 1 b 347 -54 176 -32 236 -53 l 301 -39 b 256 -17 288 -35 272 -26 l 264 -17 b 486 160 356 -17 453 72 b 508 269 501 197 508 231 l 508 450 b 556 571 508 496 525 556 b 668 592 604 575 653 579 b 689 626 678 599 689 614 b 686 635 689 631 688 633 l 682 633 b 599 625 661 628 647 625 l 344 625 b 317 601 326 619 317 611 b 369 572 317 589 336 576 b 426 451 401 561 426 529 l 426 394 b 347 325 411 354 368 331 b 335 313 342 319 335 317 b 339 307 335 310 336 308 l 346 307 b 425 346 372 307 407 319 l 425 332 b 304 238 400 289 325 244 b 289 224 299 232 289 229 b 293 218 289 222 290 221 l 307 217 b 425 257 346 217 399 231 b 271 69 418 151 326 74 l 263 68 b 235 65 253 67 244 65 b 121 126 203 65 164 75 b 113 176 115 142 113 158 l 113 201 b 115 224 113 206 114 214 z "},"Q":{"ha":507,"x_min":0,"x_max":0,"o":"m 519 592 b 540 626 529 599 540 614 b 538 635 540 631 539 633 l 533 633 b 450 625 513 628 499 625 l 236 625 b 215 624 226 625 219 625 l 125 624 b 81 621 107 622 92 621 b 28 625 60 621 49 624 b 72 594 54 614 65 607 b 75 581 74 592 75 588 b 68 558 75 571 72 563 b 11 438 42 529 24 492 b -26 225 -17 343 -26 269 b -7 140 -26 190 -14 140 b -10 175 -8 151 -10 163 b 1 257 -10 197 -8 224 b 236 0 17 58 114 0 b 403 64 301 0 360 15 b 497 -82 429 1 472 -60 b 625 -133 540 -117 582 -133 b 764 -89 663 -133 710 -118 b 456 117 550 -85 482 57 b 447 133 453 124 450 129 b 472 313 447 150 472 274 b 392 571 472 444 440 522 b 519 592 443 571 506 578 z m 74 313 b 219 571 74 486 136 571 l 243 571 b 368 482 294 571 339 542 b 371 453 369 472 371 463 b 178 276 371 324 218 288 b 171 275 176 275 174 275 l 132 267 l 124 240 b 190 244 149 243 171 244 b 365 147 278 244 326 218 b 236 74 336 93 290 74 b 74 313 146 74 74 133 z m 399 313 b 390 224 399 278 396 249 b 292 285 363 258 335 274 b 397 351 335 297 379 328 z "},"K":{"ha":522,"x_min":0,"x_max":0,"o":"m 376 92 b 486 -85 403 24 438 -44 b 615 -135 526 -118 569 -135 b 764 -89 658 -135 708 -119 b 458 129 542 -85 481 71 b 454 139 457 132 456 135 b 335 294 410 247 385 271 b 443 468 358 306 414 328 b 492 567 461 554 468 556 l 499 571 l 510 572 b 611 592 560 574 596 579 b 632 626 621 599 632 614 b 629 635 632 631 631 633 l 625 633 b 542 625 604 628 590 625 l 304 625 b 276 601 286 619 276 611 b 329 572 276 589 296 576 b 374 533 367 572 374 560 b 371 485 374 521 372 506 b 179 276 346 314 218 283 b 171 275 176 275 174 275 l 153 271 l 153 376 b 154 438 153 396 153 417 l 154 454 b 174 563 154 492 157 544 b 243 608 183 572 243 594 b 233 632 243 625 240 628 l 131 625 l -117 625 b -140 607 -126 625 -140 617 b -137 601 -140 606 -139 603 b -35 583 -119 590 -51 583 l -22 583 b 67 533 21 583 46 565 b 69 500 68 524 69 513 l 69 417 b 29 322 69 372 44 338 b -50 268 3 293 -29 275 l -51 265 b -57 253 -56 258 -57 254 b -50 243 -57 249 -54 244 b -21 236 -40 239 -31 236 b 54 268 7 236 42 250 b 69 233 69 267 69 254 l 69 178 b 4 -21 69 88 67 46 l -6 -31 b 18 -36 -7 -36 17 -36 b 242 47 93 -36 121 47 l 257 47 b 274 46 263 47 268 47 b 307 69 294 46 300 60 l 297 69 b 181 94 269 69 261 68 b 156 138 168 104 160 122 b 153 243 154 176 153 211 b 174 244 160 244 167 244 l 193 244 b 376 92 293 244 332 203 z "},"M":{"ha":764,"x_min":0,"x_max":0,"o":"m 546 83 b 540 50 544 65 542 57 l 538 40 b 536 28 536 38 536 33 b 550 4 536 18 539 15 b 561 0 553 1 557 0 b 571 3 565 0 569 1 b 810 164 664 121 768 153 b 840 186 821 168 836 176 b 842 192 842 188 842 189 b 826 208 842 201 836 208 b 738 200 783 208 765 206 b 672 185 715 196 688 185 b 636 308 654 185 636 207 l 636 432 b 678 556 636 493 640 515 b 761 586 689 571 742 586 l 858 586 b 872 600 868 588 872 593 b 863 617 872 606 867 613 b 853 625 858 619 856 622 l 586 625 l 449 635 b 421 617 442 635 421 628 b 511 568 421 603 511 606 b 474 497 511 546 481 514 b 356 329 419 421 388 369 b 207 485 318 367 285 400 b 153 568 175 522 153 546 b 263 617 153 606 263 603 b 235 635 263 628 242 635 l 97 625 l -169 625 b -179 617 -174 622 -176 619 b -189 600 -186 613 -189 607 b -175 586 -189 593 -185 588 l -78 586 b -1 551 -57 586 -11 565 b 47 397 46 496 47 472 l 47 331 b -39 197 47 286 -1 224 b -37 189 -39 194 -39 192 b -32 182 -36 185 -33 182 b -26 181 -31 181 -29 181 b 36 222 -11 181 18 200 l 40 224 b 47 208 47 224 47 214 l 47 63 b 43 -65 47 24 46 -37 b 38 -97 42 -83 39 -92 l 35 -107 b 33 -121 33 -111 33 -115 b 47 -144 33 -131 36 -133 b 58 -149 50 -147 54 -149 b 68 -146 63 -149 67 -147 b 319 39 160 -28 278 28 b 364 53 332 43 364 44 b 321 69 364 63 331 69 b 239 58 278 69 261 65 b 169 36 217 51 185 36 b 133 160 151 36 133 58 l 133 392 b 142 432 133 418 132 432 b 171 413 147 432 157 425 b 210 372 185 397 197 385 l 243 339 b 275 261 267 301 275 278 b 225 226 275 229 246 228 l 218 226 l 218 219 b 232 203 218 208 222 207 b 264 197 242 199 251 197 b 338 228 285 197 311 201 b 426 106 364 194 389 160 b 451 69 436 90 447 69 b 476 111 458 69 472 104 b 479 131 478 115 479 121 b 443 228 479 164 458 213 b 393 288 422 254 414 265 b 513 439 426 331 467 378 b 538 454 522 449 531 454 b 550 419 550 454 550 435 l 550 211 b 546 83 550 172 549 111 z "},"W":{"ha":696,"x_min":0,"x_max":0,"o":"m -208 625 b -218 617 -212 622 -215 619 b -226 600 -224 610 -226 604 b -211 586 -226 594 -221 590 l -114 586 b -29 560 -90 586 -47 574 b 33 367 4 531 15 510 l 38 331 l 38 325 b -36 200 38 281 -8 214 l -36 193 b -25 175 -36 181 -32 175 b 39 221 4 182 32 217 b 50 208 43 219 49 221 l 53 174 b 57 82 56 149 57 118 l 57 74 b 53 35 57 50 53 47 l 53 26 b 69 3 54 17 57 14 b 81 -1 72 0 76 -1 b 90 1 85 -1 89 0 b 303 185 160 104 251 167 b 518 0 363 117 450 0 l 538 0 b 585 31 554 0 583 21 l 574 40 l 569 43 b 546 81 554 54 550 60 b 579 367 546 117 553 147 b 639 560 594 510 607 531 b 724 586 654 575 703 586 l 821 586 b 836 600 831 590 836 594 b 826 617 836 606 831 611 l 818 625 l 553 625 l 417 635 b 388 617 410 635 389 628 b 472 569 388 601 439 592 b 500 485 490 557 500 528 b 494 408 500 464 499 440 b 389 261 474 310 426 271 b 381 249 383 257 381 253 b 383 239 381 246 382 243 l 394 239 b 481 279 426 239 460 253 l 475 215 b 443 131 468 142 456 131 l 429 132 b 339 236 403 136 350 218 b 303 322 324 258 318 272 b 274 278 292 322 278 289 b 271 239 272 272 271 254 b 274 217 271 226 272 219 l 239 206 b 172 183 218 199 188 183 b 132 240 154 183 136 192 l 117 393 b 114 421 115 403 114 413 l 114 446 b 153 567 114 513 132 540 b 222 617 176 599 222 601 b 193 635 221 628 200 635 l 57 625 z "},"V":{"ha":513,"x_min":0,"x_max":0,"o":"m 436 625 l 301 635 b 269 617 294 635 274 628 b 349 569 269 603 331 599 b 361 521 357 563 361 546 b 339 393 361 492 356 450 l 338 388 b 244 286 314 322 276 296 b 236 274 239 282 236 278 b 239 264 236 271 238 268 l 251 264 b 311 281 272 264 293 269 l 294 215 b 236 104 268 114 254 104 b 163 240 211 108 176 181 l 140 393 b 135 464 136 421 135 443 b 167 567 135 518 149 540 b 233 615 188 594 233 604 b 203 635 232 628 210 635 l 68 625 l -196 625 l -204 617 b -212 600 -210 610 -212 604 b -197 586 -212 594 -207 590 l -100 586 b -14 560 -78 586 -32 575 b 58 367 21 529 29 511 l 61 351 l 61 343 b -8 224 61 283 19 239 b 6 193 -8 203 -4 193 b 68 238 33 200 58 217 b 83 208 72 236 79 221 l 97 164 b 161 58 97 153 132 76 b 303 0 188 25 225 0 l 322 0 b 367 14 333 0 360 4 b 375 40 372 21 374 36 b 344 81 349 50 344 54 b 422 365 349 117 363 147 b 513 560 460 510 474 531 b 601 586 531 575 581 586 l 699 586 b 715 601 710 590 715 594 b 708 617 715 607 713 613 b 701 625 706 619 703 622 z "},"X":{"ha":536,"x_min":0,"x_max":0,"o":"m -110 -44 b 178 0 19 0 153 0 l 188 0 b 221 14 201 0 221 3 b 161 57 221 40 171 29 b 158 75 160 61 158 67 b 233 235 158 103 178 147 l 267 289 l 300 232 b 375 72 354 142 375 99 b 372 57 375 68 374 63 b 313 15 361 29 313 43 b 346 0 313 4 332 0 l 356 0 b 643 -44 381 0 514 0 l 647 -46 b 654 -33 651 -46 654 -42 b 653 -22 654 -29 654 -25 b 632 0 649 -12 644 -4 b 556 31 606 4 581 14 b 375 260 508 60 461 114 l 317 344 l 331 367 b 490 560 415 510 444 531 b 564 586 514 575 543 586 l 615 586 b 640 608 636 592 640 599 b 639 614 640 610 640 613 l 633 625 l 332 625 b 311 626 328 625 321 626 b 289 617 300 626 290 626 b 333 575 289 596 322 601 b 336 557 335 571 336 565 b 267 401 336 528 318 483 b 196 556 215 483 196 526 b 200 575 196 563 197 569 b 243 614 211 601 243 596 b 222 626 242 625 232 626 b 203 625 213 626 207 625 l -100 625 b -104 619 -101 624 -103 621 b -107 608 -106 615 -107 613 b -82 586 -107 599 -103 592 l -31 586 b 43 560 -10 586 19 575 b 203 367 89 531 118 510 l 215 344 l 169 267 b 29 193 115 211 67 193 b -1 197 17 193 7 194 b -18 182 -17 197 -17 192 b 53 158 0 167 24 158 b 110 174 75 158 94 164 b -22 31 53 90 15 54 b -99 0 -47 14 -72 4 b -119 -22 -111 -4 -115 -12 b -121 -28 -121 -24 -121 -26 l -121 -35 b -114 -46 -121 -42 -118 -46 z "},"Y":{"ha":557,"x_min":0,"x_max":0,"o":"m 407 -35 b 435 -21 425 -35 425 -33 b 439 -11 438 -17 439 -14 b 418 7 439 -1 432 4 b 372 29 401 11 390 14 b 336 172 343 51 336 74 l 365 222 b 542 560 450 367 494 531 b 615 586 565 575 594 586 l 667 586 b 692 608 688 592 692 599 b 690 614 692 610 692 613 l 685 625 l 382 625 b 363 626 378 625 372 626 b 342 617 353 626 343 626 b 385 575 342 597 369 601 b 396 526 392 563 396 546 b 292 242 396 461 357 360 b 190 524 226 358 190 457 b 200 575 190 544 193 563 b 243 614 211 601 243 596 b 222 626 242 625 232 626 b 203 625 213 626 207 625 l -100 625 b -104 619 -101 624 -103 621 b -107 608 -106 615 -107 613 b -82 586 -107 599 -103 592 l -31 586 b 43 560 -10 586 19 575 b 126 410 69 543 94 486 l 132 397 b 143 319 142 368 143 342 b 103 214 143 265 124 232 b 99 204 100 210 99 206 b 107 193 99 200 101 197 b 181 292 147 206 181 251 b 219 222 193 268 204 244 l 249 171 b 211 63 244 92 228 75 l 207 60 b 121 18 189 42 147 57 b 119 14 119 17 119 15 b 156 3 119 4 150 3 b 407 -35 183 3 313 -8 z "},"Z":{"ha":572,"x_min":0,"x_max":0,"o":"m -104 -36 b 139 0 11 1 114 0 l 257 0 b 424 -18 279 0 347 0 b 432 -44 431 -28 432 -35 l 431 -64 b 438 -78 431 -71 433 -76 b 461 -51 449 -78 457 -57 l 572 140 b 568 147 571 142 569 144 b 556 154 564 151 561 154 b 536 144 550 154 543 151 b 486 86 514 118 510 110 b 453 57 476 76 471 64 b 418 49 443 53 431 50 l 410 49 b 321 61 389 49 360 53 l 207 86 l 231 46 b 146 38 193 46 164 43 b 122 57 136 42 126 46 b 119 75 121 61 119 67 b 190 235 119 103 135 147 l 275 367 b 414 554 365 506 369 513 l 419 560 b 492 586 440 578 464 586 l 518 586 b 543 608 539 592 543 599 b 542 614 543 610 543 613 l 536 625 l 217 625 b 139 646 168 625 157 625 b 132 667 135 651 132 658 l 133 690 b 128 703 133 697 132 701 b 104 676 117 703 108 682 l -7 485 b -3 478 -6 482 -4 479 b 10 471 0 474 4 471 b 29 481 15 471 22 474 b 79 539 51 507 58 522 l 83 542 b 218 564 99 557 110 564 l 281 564 l 281 556 b 206 393 281 524 260 478 l 186 361 b 50 290 135 307 88 290 b 19 294 38 290 28 292 b 3 279 4 294 4 289 b 74 256 21 264 44 256 b 133 274 97 256 118 261 l 125 258 b -32 36 7 63 -7 51 b -93 8 -58 21 -76 14 b -114 -14 -106 4 -110 -4 b -115 -19 -115 -15 -115 -18 l -115 -26 b -108 -37 -115 -33 -112 -37 z "},"@":{"ha":903,"x_min":0,"x_max":0,"o":"m 357 818 b 264 736 331 801 290 771 b 251 690 257 725 253 710 b 275 624 250 651 265 635 b 69 374 86 619 69 589 b 174 351 107 358 142 351 b 350 486 268 351 324 413 b 271 518 350 510 271 501 b 294 543 271 522 290 543 l 381 532 l 540 532 b 557 524 551 532 557 529 b 553 515 557 521 556 518 b 522 503 544 507 535 503 b 457 486 496 503 475 501 b 450 478 453 485 451 482 b 449 460 449 475 449 469 l 450 453 b 465 408 456 440 460 417 b 506 283 481 363 490 322 b 658 393 521 335 557 393 l 679 392 b 540 222 569 358 540 286 b 549 163 540 200 544 179 b 586 57 560 131 571 97 b 694 313 651 113 694 196 b 482 624 694 585 678 619 b 508 689 493 635 508 654 l 508 697 b 401 818 501 751 436 794 b 422 778 406 808 410 804 b 403 721 399 771 392 732 b 435 703 413 711 424 703 b 429 722 432 706 431 713 b 450 753 429 732 435 753 b 483 697 461 753 483 729 b 456 642 483 681 476 646 b 426 679 451 674 442 679 b 399 644 410 679 399 663 b 404 625 399 636 400 629 l 353 625 b 360 647 357 632 360 639 b 328 679 360 663 350 679 b 301 642 318 679 306 674 l 296 644 b 275 701 286 650 275 664 b 308 753 275 719 299 753 b 328 735 318 753 326 742 b 324 703 332 724 324 718 b 329 704 325 703 326 703 l 338 707 b 351 721 342 708 344 714 b 336 778 367 736 363 772 l 349 804 b 357 818 351 808 354 814 z m 293 118 b 135 74 251 118 179 89 b 365 -24 192 8 276 -24 b 547 28 428 -24 493 -6 b 397 103 508 53 476 92 b 404 118 397 111 400 117 b 465 113 425 117 443 113 l 482 114 b 506 128 493 115 506 117 b 486 208 499 172 497 167 b 449 256 471 243 458 256 b 442 253 447 256 446 254 b 319 206 418 233 346 206 l 318 189 b 372 133 318 163 350 139 b 382 117 376 128 382 122 b 376 107 382 114 381 111 l 353 113 b 333 117 349 114 342 115 b 314 118 329 118 322 118 z m 69 272 b 121 92 69 199 86 139 b 125 93 122 92 124 92 b 189 133 136 99 165 118 b 232 204 204 144 225 186 b 182 218 204 208 197 211 b 126 289 160 228 128 256 b 224 250 171 261 201 250 b 278 300 253 250 267 271 b 288 331 281 310 283 319 l 293 346 b 264 333 290 343 281 339 b 200 324 246 326 225 324 b 69 374 160 324 113 335 z m 322 275 b 319 261 321 274 319 268 b 322 256 319 257 321 256 b 379 278 333 256 364 271 l 371 278 b 349 285 356 278 349 281 b 354 292 349 288 350 290 b 432 332 371 296 432 317 b 393 438 432 342 406 438 b 376 407 389 438 382 418 z m 401 690 b 379 714 401 706 394 714 b 357 690 364 714 357 706 b 379 668 357 675 364 668 b 401 690 394 668 401 675 z "},"/":{"ha":139,"x_min":0,"x_max":0,"o":"m 792 969 b 93 426 454 969 175 739 l 93 826 l 69 972 l 69 -347 l 101 69 l 101 303 b 792 917 150 681 471 917 b 1449 522 1085 917 1333 754 b 1511 276 1486 446 1507 364 b 1449 543 1507 371 1486 460 b 792 969 1335 794 1085 969 z "},"(":{"ha":347,"x_min":0,"x_max":0,"o":"m 142 313 b 306 764 142 540 217 713 b 78 465 200 764 111 639 b 40 206 50 350 40 260 b 60 101 40 165 53 101 b 58 118 58 107 58 113 l 58 139 b 69 244 58 168 60 201 b 306 -139 85 1 182 -139 b 142 313 217 -94 142 93 z "},")":{"ha":347,"x_min":0,"x_max":0,"o":"m 40 -139 b 276 244 164 -139 261 1 b 288 139 286 201 288 168 l 288 118 b 286 101 288 113 288 107 b 306 206 293 101 306 165 b 268 465 306 260 296 350 b 40 764 235 639 146 764 b 193 460 111 724 169 614 b 194 432 194 450 194 440 l 194 408 b 164 300 194 354 188 321 b 132 263 157 293 132 279 b 139 257 133 258 135 257 b 204 296 156 257 183 274 b 40 -139 200 82 128 -94 z "},"m":{"ha":764,"x_min":0,"x_max":0,"o":"m -10 268 b -24 242 -19 256 -24 247 b -21 236 -24 238 -22 236 b 69 289 24 236 49 256 b 74 279 72 282 74 279 l 75 278 b 18 204 75 246 44 221 l 11 194 b 32 185 11 185 22 185 b 69 196 44 185 57 189 b -15 51 63 113 36 89 l 6 39 b 26 40 10 40 17 40 b 286 -19 110 40 214 -19 b 307 0 290 -19 306 -17 b 246 38 271 17 257 29 l 235 46 b 132 318 157 117 132 213 l 132 324 b 133 340 132 328 132 333 l 133 393 b 146 428 133 408 133 428 b 171 413 153 428 161 422 b 182 403 175 408 179 404 b 272 286 215 374 239 351 b 297 214 290 253 297 229 b 251 179 297 182 269 181 l 243 179 l 243 172 b 257 156 243 161 247 160 b 301 146 272 149 288 146 b 393 203 339 146 369 165 b 513 439 428 256 453 357 b 538 454 522 449 531 454 b 550 419 550 454 550 435 l 550 243 b 532 113 550 218 540 136 b 442 24 521 78 442 47 b 457 -3 442 14 447 -3 l 461 -1 b 507 26 478 6 508 26 b 679 61 540 38 578 61 l 703 61 b 729 60 711 61 719 61 b 743 57 736 58 742 57 b 767 81 760 57 767 71 b 764 88 767 85 765 88 b 651 139 714 99 683 107 b 636 310 642 149 636 206 l 636 433 b 678 549 636 493 640 507 b 761 586 689 563 742 586 l 858 586 b 872 600 868 588 872 593 b 863 617 872 606 867 613 b 853 625 858 619 856 622 l 586 625 l 449 635 b 421 617 442 635 421 628 b 496 567 421 603 496 606 b 471 493 496 544 478 510 b 379 286 426 419 413 342 b 397 357 389 304 397 331 b 394 378 397 361 396 368 b 369 406 390 388 385 404 b 372 376 371 394 372 386 b 351 310 372 344 363 325 l 349 306 b 294 382 315 353 313 356 b 151 549 260 428 151 525 b 263 617 151 588 263 603 b 235 635 263 628 242 635 l 97 625 l -60 625 b -69 617 -64 622 -67 619 b -79 600 -76 613 -79 607 b -65 586 -79 593 -75 588 l -42 586 b 22 551 -21 586 11 567 b 47 374 46 519 47 450 b -10 268 42 333 25 303 z "},"d":{"ha":531,"x_min":0,"x_max":0,"o":"m 486 160 b 508 269 503 194 508 231 l 508 276 b 364 571 508 404 469 510 b 492 592 418 575 476 576 b 513 626 501 599 513 614 b 510 635 513 631 511 633 l 506 633 b 422 625 485 628 471 625 l -51 625 b -71 614 -64 625 -71 621 l -69 608 b -43 583 -65 597 -58 583 l -36 583 b 42 515 13 583 42 556 l 42 376 b -29 257 42 343 -1 268 b -57 229 -40 251 -57 244 b -54 219 -57 228 -56 225 b -37 214 -50 215 -44 214 b 38 256 -14 214 17 239 b 43 260 39 257 42 258 l 43 181 b 89 54 43 107 65 75 l 36 54 b -47 63 -12 54 -26 57 l -51 64 b -54 56 -53 63 -54 60 b -33 21 -54 43 -43 28 b 158 0 -11 3 96 0 l 226 0 b 486 160 314 0 442 64 z m 115 314 b 124 508 115 379 119 446 b 153 571 128 531 135 556 l 178 572 b 399 453 278 572 356 526 b 425 267 425 408 425 321 b 268 78 425 157 339 96 b 224 69 257 74 242 69 b 121 126 194 69 160 82 b 113 176 115 142 113 158 l 113 201 b 115 224 113 206 114 214 z "},"e":{"ha":417,"x_min":0,"x_max":0,"o":"m -36 596 b 22 517 4 596 22 526 b 28 447 25 483 28 467 l 28 424 b -53 285 28 364 -14 314 l -64 260 b 28 304 -31 265 11 283 l 32 288 l 35 274 b 38 243 36 264 38 254 b -4 10 38 165 25 103 b -15 -7 -6 6 -15 -3 l -17 -21 b 0 -37 -17 -36 -15 -37 b 57 -3 15 -37 44 -8 b 199 28 103 18 150 28 b 413 -26 275 28 347 6 b 415 -19 414 -28 415 -26 b 393 28 415 -7 408 21 b 146 96 292 78 194 96 b 129 94 138 96 132 96 b 122 106 125 99 122 101 l 122 219 b 242 288 122 232 218 275 b 363 361 285 314 325 332 b 382 413 371 368 378 385 b 172 297 315 374 243 332 l 222 338 b 257 381 238 349 253 365 l 236 383 b 124 331 199 357 147 331 b 108 360 111 331 108 344 l 108 490 b 110 504 108 494 108 500 b 115 528 111 511 111 521 b 214 583 126 576 175 579 l 224 585 b 342 578 279 585 315 578 l 354 578 b 365 581 358 578 361 579 b 396 615 372 582 389 600 b 397 622 397 617 397 618 b 386 643 397 629 393 636 b 222 625 347 625 282 625 l -131 625 b -139 613 -133 624 -136 619 b -142 604 -140 610 -142 607 b -69 596 -142 599 -131 596 z "},"f":{"ha":417,"x_min":0,"x_max":0,"o":"m -104 -110 b -81 -115 -106 -115 -82 -115 b 71 -35 -28 -115 38 -60 l 75 -31 b 82 -25 79 -26 81 -26 b 108 -3 90 -18 99 -11 l 136 22 b 174 69 154 39 168 57 b 121 88 153 69 144 69 b 118 208 119 125 118 165 l 118 229 b 367 347 190 251 310 268 b 389 413 372 354 385 386 b 179 297 322 374 250 332 l 229 338 b 264 381 244 349 260 365 l 243 383 b 131 331 206 357 154 331 b 115 360 118 331 115 344 l 115 490 b 117 504 115 494 115 500 b 122 528 118 511 118 521 b 221 583 133 576 182 579 l 231 585 b 390 567 304 585 347 574 b 407 606 403 588 407 594 l 407 613 b 393 643 407 619 404 633 b 229 625 354 625 289 625 l -133 625 l -137 621 l -144 617 b -149 611 -147 615 -149 613 b -62 596 -149 604 -129 596 l 0 576 b 29 517 22 556 28 526 b 35 447 32 483 35 467 l 35 424 b -46 285 35 364 -7 314 l -57 260 b 35 304 -24 265 18 283 l 35 139 b -94 -100 35 40 15 -26 z "},"g":{"ha":542,"x_min":0,"x_max":0,"o":"m 489 361 b 271 260 429 304 292 264 b 235 224 260 254 235 235 b 238 219 235 222 236 221 l 247 219 b 417 247 281 219 358 229 l 417 142 b 283 99 399 113 354 99 b 103 285 146 99 107 188 b 228 386 125 329 204 375 b 243 400 233 392 243 394 b 239 406 243 401 242 403 l 233 406 b 108 351 196 406 140 381 b 226 497 125 417 171 457 b 457 583 297 550 396 583 b 539 603 506 583 528 593 l 524 625 l -110 625 b -133 611 -119 625 -133 621 b -110 593 -133 596 -119 593 b 206 567 -4 589 104 579 b 32 407 129 535 69 479 b 0 263 10 364 0 325 b 240 0 0 153 79 0 b 396 22 310 0 340 7 l 417 26 b 528 0 497 19 488 11 b 504 78 522 32 515 46 b 499 132 500 93 499 111 b 504 256 499 169 504 207 l 504 304 b 503 346 504 325 503 336 b 489 361 503 350 490 365 z "},"h":{"ha":453,"x_min":0,"x_max":0,"o":"m 285 335 b 136 283 258 301 171 288 b 126 290 129 283 126 286 l 126 508 b 147 563 131 540 136 544 b 215 604 154 576 215 590 b 176 632 215 631 193 632 b 99 625 147 632 122 625 l -79 625 b -96 614 -90 625 -96 621 b -93 608 -96 613 -94 610 b -62 583 -78 592 -78 583 l -50 583 b 43 515 -1 583 22 558 l 43 331 b -1 282 43 303 38 282 b -10 283 -4 283 -7 283 b -18 285 -15 283 -18 283 b -28 286 -21 286 -24 286 b -51 269 -39 286 -44 279 b 46 229 -25 249 19 233 b 44 151 46 190 44 167 b -25 24 44 60 -3 31 b -54 0 -36 14 -54 10 b -51 -7 -54 -3 -53 -6 b -33 -18 -44 -14 -37 -18 b -25 -15 -32 -18 -29 -17 b 89 13 8 6 46 13 b 200 0 124 13 161 7 l 208 18 b 126 81 165 39 126 51 l 126 192 b 125 210 125 196 125 203 b 126 224 125 217 125 221 b 313 278 189 228 251 239 l 313 189 b 264 25 313 60 313 43 l 236 17 b 271 0 243 -4 247 1 b 283 1 275 1 279 1 l 296 1 b 582 -93 404 1 536 -86 l 588 -93 b 615 -69 603 -93 608 -76 b 424 67 578 -69 457 26 b 399 118 411 82 403 103 b 396 214 397 153 396 185 l 396 375 b 397 454 396 401 396 428 b 417 563 397 492 400 544 b 486 608 426 572 486 594 b 476 632 486 625 483 628 l 374 625 l 271 625 b 254 615 264 625 254 625 b 306 550 271 593 296 576 b 313 492 311 539 313 510 l 313 447 b 311 433 313 440 313 435 l 308 419 b 174 331 301 381 229 342 l 169 328 b 158 314 163 322 158 318 b 171 310 158 311 163 310 l 178 310 b 203 313 185 310 193 311 l 235 319 b 285 335 257 325 275 331 z "},"i":{"ha":300,"x_min":0,"x_max":0,"o":"m 233 -54 b 189 135 189 1 189 35 l 189 454 b 208 563 189 492 192 544 b 278 608 218 572 278 594 b 268 632 278 625 275 628 l 165 625 l -8 625 b -32 607 -18 625 -32 617 b -29 601 -32 606 -31 603 b 0 583 -11 589 -15 583 l 13 583 b 101 533 56 583 81 565 b 104 500 103 524 104 513 l 104 417 b 64 322 104 372 79 338 b -15 268 38 293 6 275 l -17 265 b -22 253 -21 258 -22 254 b -15 243 -22 249 -19 244 b 14 236 -6 239 4 236 b 89 268 42 236 76 250 b 104 233 104 267 104 254 l 104 163 b 103 118 104 144 103 124 b 76 76 99 103 89 86 b -37 50 38 50 0 50 l -43 50 l -43 44 b -33 15 -43 35 -43 25 b 25 1 -29 10 7 3 b 168 -47 90 -3 136 -21 b 229 -79 190 -65 208 -79 b 244 -68 235 -79 244 -74 b 243 -64 244 -67 244 -65 z "},"j":{"ha":315,"x_min":0,"x_max":0,"o":"m 6 601 b 35 583 24 589 19 583 l 47 583 b 136 533 90 583 115 565 b 139 500 138 524 139 513 l 139 417 b 99 322 139 372 114 338 b 19 268 72 293 40 275 l 18 265 b 13 253 14 258 13 254 b 19 243 13 249 15 244 b 49 236 29 239 39 236 b 124 268 76 236 111 250 b 136 258 131 267 135 263 b 76 185 126 215 97 190 b 64 172 71 179 64 176 b 68 167 64 169 65 168 l 76 167 b 139 189 97 167 118 174 l 139 139 l 224 139 b 222 222 222 167 222 194 l 222 383 b 224 454 222 408 222 432 b 243 563 224 492 226 544 b 313 608 253 572 313 594 b 300 625 313 626 307 621 l 26 625 b 3 607 17 625 3 617 b 6 601 3 606 4 603 z m 257 -174 b 182 -115 200 -147 182 -136 b 224 79 182 -85 224 -42 l 224 139 l 139 139 l 139 68 b 138 -4 139 35 138 1 b 111 -46 133 -19 124 -36 b 53 -60 99 -56 79 -60 b -103 0 3 -60 -60 -40 b -110 -29 -107 -4 -110 -14 b -101 -56 -110 -40 -107 -51 b 264 -201 -35 -100 157 -201 b 281 -190 269 -201 281 -196 b 278 -186 281 -189 279 -187 z "},"k":{"ha":522,"x_min":0,"x_max":0,"o":"m 340 107 b 350 78 347 92 350 82 b 338 61 350 71 346 65 b 322 39 331 57 322 54 l 482 -33 b 525 -46 501 -42 515 -46 b 564 -11 546 -46 551 -29 b 425 139 454 18 436 114 b 313 292 379 249 363 269 b 418 468 332 307 407 388 b 463 567 433 554 439 554 l 469 571 l 481 572 b 556 592 531 574 540 579 b 576 626 565 599 576 614 b 574 635 576 631 575 633 l 569 633 b 486 625 549 628 535 625 l 293 625 b 288 610 289 621 288 617 b 318 572 288 594 297 578 b 353 551 344 572 353 567 b 342 485 353 536 346 514 b 171 275 317 335 197 279 l 153 271 l 153 376 b 154 438 153 396 153 417 l 154 454 b 174 563 154 492 157 544 b 243 608 183 572 243 594 b 233 632 243 625 240 628 l 131 625 l -117 625 b -140 607 -126 625 -140 617 b -137 601 -140 606 -139 603 b -35 583 -119 590 -51 583 l -22 583 b 67 533 21 583 46 565 b 69 500 68 524 69 513 l 69 417 b 29 322 69 372 44 338 b -50 268 3 293 -29 275 l -51 265 b -57 253 -56 258 -57 254 b -50 243 -57 249 -54 244 b -21 236 -40 239 -31 236 b 54 268 7 236 42 250 b 69 233 69 267 69 254 l 69 178 b 4 -21 69 88 67 46 l -6 -31 b 3 -36 -6 -36 -1 -36 l 18 -36 b 242 47 93 -36 121 47 l 257 47 b 274 46 263 47 268 47 b 307 69 294 46 300 60 l 297 69 b 181 94 269 69 261 68 b 156 138 168 104 160 122 b 153 243 154 176 153 211 b 174 244 160 244 167 244 l 193 244 b 340 107 286 244 300 207 z "},"b":{"ha":486,"x_min":0,"x_max":0,"o":"m 365 350 b 404 464 383 372 404 401 b 365 556 404 493 393 524 l 350 571 b 492 592 410 571 474 576 b 513 626 501 599 513 614 b 510 635 513 631 511 633 l 506 633 b 422 625 485 628 471 625 l -51 625 b -71 614 -64 625 -71 621 l -69 608 b -43 583 -65 597 -58 583 l -36 583 b 42 515 13 583 42 556 l 42 376 b -29 257 42 343 -1 268 b -57 229 -40 251 -57 244 b -54 219 -57 228 -56 225 b -37 214 -50 215 -44 214 b 38 256 -14 214 17 239 b 43 260 39 257 42 258 l 43 181 b 79 54 43 115 58 78 l 36 54 b -47 63 -12 54 -26 57 l -51 64 b -54 56 -53 63 -54 60 b -33 21 -54 43 -43 28 b 158 0 -11 3 96 0 l 247 0 b 347 21 271 0 325 14 b 458 165 404 43 458 100 b 351 335 458 239 422 308 b 365 350 356 338 360 343 z m 190 269 b 203 272 194 271 199 271 b 217 275 207 274 211 274 b 185 254 204 267 194 260 b 161 243 175 249 167 244 b 146 229 156 238 146 235 b 150 224 146 228 147 226 b 288 300 176 224 260 264 b 292 301 289 300 290 300 b 381 213 354 300 381 258 b 357 138 381 186 372 161 b 217 69 336 106 282 69 b 140 88 190 69 165 75 b 113 176 125 114 113 143 l 113 201 b 115 224 113 206 114 214 l 114 256 b 190 269 140 260 156 263 z m 115 314 b 124 508 115 379 119 446 b 156 551 133 529 146 542 b 174 564 161 556 167 560 b 228 571 192 568 207 571 l 261 571 b 326 460 310 543 326 503 b 251 374 311 411 272 379 b 239 361 246 368 239 365 b 243 356 239 358 240 357 l 249 356 b 308 385 269 356 289 365 b 293 361 304 376 300 368 b 281 346 288 354 283 349 b 115 304 243 324 175 308 z "},"a":{"ha":492,"x_min":0,"x_max":0,"o":"m 504 54 b 507 61 506 56 507 58 b 500 69 507 64 504 67 b 463 88 483 75 478 72 b 340 365 422 124 389 232 b 261 554 322 414 310 447 l 261 563 b 379 604 261 592 368 579 b 386 619 381 606 386 614 b 376 625 386 624 383 625 l 33 625 b 10 614 18 625 10 621 b 17 601 10 610 13 606 b 61 586 28 592 43 586 b 124 542 89 586 124 565 l 122 525 b 99 453 122 522 107 468 b 96 446 97 449 97 447 b 13 342 78 403 58 385 l 7 338 b 19 333 8 335 13 333 b 65 351 35 333 56 340 b 24 231 50 308 39 274 b -51 178 -1 188 -51 192 b -22 165 -47 168 -33 165 b -11 167 -17 165 -12 165 b -4 156 -7 165 -4 161 l -4 150 b -7 143 -6 146 -7 144 l -10 139 b -89 -85 -31 76 -57 6 l -92 -104 b -86 -103 -90 -104 -89 -104 b -75 -101 -82 -103 -79 -101 b 193 25 18 -79 46 7 b 183 49 193 38 190 46 b 97 39 157 44 129 39 b 76 40 88 39 81 39 b 40 56 60 42 40 43 l 42 61 b 74 156 58 107 64 124 b 308 242 156 171 268 219 b 324 164 319 207 324 182 b 319 139 324 154 322 146 b 236 67 303 88 268 76 l 229 65 l 221 57 b 215 49 217 53 215 50 b 222 32 215 42 218 36 b 282 46 250 39 261 42 b 381 56 297 50 338 56 b 492 40 403 56 436 53 b 504 54 499 47 503 53 z m 103 240 b 139 347 113 268 122 301 b 142 357 139 349 140 351 b 197 496 153 394 182 492 b 222 449 207 497 215 467 l 269 335 b 150 281 251 313 168 285 b 146 275 147 279 146 276 b 169 264 146 268 154 264 b 211 272 179 264 193 265 b 114 229 197 263 132 229 b 106 235 110 229 107 231 z "},"|":{"ha":0,"x_min":0,"x_max":0,"o":"m -371 325 b -382 318 -375 321 -378 322 l -383 315 b -386 314 -383 315 -385 315 b -418 300 -399 304 -410 300 b -464 340 -431 300 -442 311 b -456 306 -458 326 -456 315 b -457 294 -456 300 -456 296 b -1869 554 -892 476 -1371 554 b -4097 82 -2637 554 -3429 364 l -4097 69 b -1832 521 -3446 347 -2606 521 b -465 279 -1325 521 -854 447 b -515 254 -476 268 -494 264 l -478 256 b -433 196 -451 256 -433 250 l -433 185 b -401 243 -424 229 -417 243 b -354 224 -390 243 -375 233 b -394 281 -383 250 -394 265 b -371 325 -394 293 -386 304 z "},"#":{"ha":1042,"x_min":0,"x_max":0,"o":"m 0 833 l 0 -139 l 903 -139 l 903 69 l 433 -115 l 469 -94 b 903 82 493 -89 874 76 l 903 435 b 885 422 896 431 890 426 b 856 401 875 415 863 407 b 668 271 790 356 733 321 b 590 129 638 218 626 181 b 579 126 589 128 583 126 l 572 126 l 517 154 b 501 179 510 158 501 168 b 517 219 501 190 517 210 l 488 207 b 396 190 472 203 410 190 l 368 190 b 190 317 279 190 190 215 b 286 529 190 400 238 469 b 813 814 440 694 579 814 l 832 814 b 851 813 839 814 844 814 l 865 833 z m 247 303 b 318 218 247 257 275 229 b 350 215 328 217 338 215 b 540 271 410 215 507 233 b 572 321 551 286 563 306 l 843 793 b 369 499 669 725 508 626 b 247 303 324 457 247 372 z m 764 421 b 801 451 775 429 788 439 b 903 540 825 472 860 501 l 903 694 z m 399 -96 l 478 54 l 497 42 l 417 -107 z m 478 110 l 494 139 l 564 101 l 547 69 z m 463 79 l 472 96 l 542 58 l 532 39 z m 868 475 b 793 417 868 479 788 417 b 868 475 799 417 868 456 z m 874 497 b 903 515 889 497 903 504 l 892 504 l 892 515 z m 838 394 b 851 404 847 399 851 401 b 846 408 851 407 850 408 b 836 400 839 408 836 406 b 838 394 836 397 836 396 z m 903 464 l 882 465 b 885 457 882 464 883 461 l 888 451 z m 903 493 b 883 485 893 492 883 489 b 889 479 883 482 885 481 z m 849 425 b 865 415 849 421 861 415 b 849 425 869 415 860 425 z "},"r":{"ha":486,"x_min":0,"x_max":0,"o":"m 43 107 b -94 -22 43 60 -17 -18 l -100 -31 b -46 -40 -85 -37 -67 -40 b 21 -25 -24 -40 0 -36 b 224 33 83 10 150 33 l 235 47 b 124 82 217 63 138 71 l 124 256 l 161 256 b 182 257 168 256 175 256 b 363 149 260 257 325 211 b 383 11 381 88 383 43 l 383 -14 b 392 -33 388 -21 386 -33 b 396 -32 393 -33 394 -33 b 406 42 401 -17 406 10 l 406 56 b 494 -85 428 1 451 -47 b 618 -135 533 -118 575 -135 b 764 -89 660 -135 708 -119 b 750 -90 760 -90 754 -90 l 738 -90 b 460 128 557 -90 482 76 l 457 133 b 313 296 419 211 385 268 l 321 301 b 328 307 324 303 326 306 b 404 464 371 340 404 392 b 365 556 404 493 393 524 l 382 571 b 522 592 442 572 506 576 b 543 626 532 599 543 614 b 540 635 543 631 542 633 l 536 633 b 453 625 515 628 501 625 l -151 625 b -175 607 -161 625 -175 617 b -172 601 -175 606 -174 603 b -69 583 -154 590 -86 583 l -57 583 b 42 515 -8 583 21 558 l 42 371 b -3 310 42 339 40 310 b -14 311 -7 311 -10 311 l -22 311 b -26 313 -25 311 -26 311 b -37 314 -29 314 -33 314 b -53 303 -43 314 -49 310 b 43 260 -26 281 17 264 z m -431 -31 b 233 -471 -321 -290 -68 -471 b 956 250 632 -471 956 -150 b 233 972 956 649 632 972 b -431 531 -67 972 -321 790 b -487 271 -465 449 -485 363 b -431 510 -485 356 -465 435 b 233 919 -321 750 -67 919 b 954 250 629 919 954 619 b 233 -418 954 -121 629 -418 b -431 -10 -68 -418 -321 -251 b -487 229 -465 64 -485 144 b -431 -31 -485 136 -465 50 z m 122 314 b 131 508 122 379 126 446 b 174 564 140 529 153 553 b 222 571 189 568 201 571 l 261 571 b 326 460 310 543 326 503 b 251 374 311 411 272 379 b 239 361 246 368 239 365 b 243 356 239 358 240 357 l 249 356 b 308 385 269 356 289 365 b 293 361 304 376 300 368 b 281 346 288 354 283 349 b 122 304 225 306 183 304 z "},"t":{"ha":208,"x_min":0,"x_max":0,"o":"m 140 706 b 147 722 140 707 146 721 b 726 740 153 735 451 740 b 1181 732 958 740 1172 736 b 1186 717 1185 729 1186 724 b 1026 329 1186 643 1026 342 b 1250 707 1026 324 1079 414 b 1282 810 1254 718 1282 776 b 1278 826 1282 817 1281 822 b 1108 764 1249 779 1158 764 l 139 764 l 139 972 b 58 764 124 906 114 786 l -1428 764 b -1446 763 -1440 764 -1446 764 b -1371 750 -1446 758 -1375 750 b 71 713 -1310 743 50 756 l 53 531 l 53 422 b -69 238 35 293 -7 238 b -86 239 -76 238 -82 238 b -99 226 -92 232 -99 231 b -90 218 -99 225 -96 222 l -76 218 b 53 278 -7 218 35 257 l 53 107 b -82 -22 53 60 -7 -18 l -87 -31 b -33 -40 -72 -37 -54 -40 b 33 -25 -11 -40 13 -36 b 236 54 96 10 163 54 l 247 68 b 136 82 229 83 150 71 z "},"p":{"ha":417,"x_min":0,"x_max":0,"o":"m -668 -25 b -4 -465 -558 -285 -306 -465 b 718 256 394 -465 718 -144 b -4 978 718 654 394 978 b -668 536 -304 978 -558 796 b -725 276 -703 454 -722 368 b -668 515 -722 361 -703 440 b -4 925 -558 756 -304 925 b 533 701 208 925 400 840 b 347 625 515 625 392 625 l -151 625 b -175 607 -161 625 -175 617 b -172 601 -175 606 -174 603 b -69 583 -154 590 -86 583 l -57 583 b 42 515 -8 583 21 558 l 42 371 b -3 310 42 339 40 310 b -14 311 -7 311 -10 311 l -22 311 b -26 313 -25 311 -26 311 b -37 314 -29 314 -33 314 b -53 303 -43 314 -49 310 b 43 260 -26 281 17 264 l 43 107 b -90 -8 43 60 -14 -4 l -100 -31 b -46 -40 -85 -37 -67 -40 b 21 -25 -24 -40 0 -36 b 224 33 83 10 150 33 l 235 47 b 124 82 217 63 138 71 l 124 256 l 138 256 b 215 261 161 256 186 257 b 328 307 258 267 301 286 b 404 464 371 340 404 392 b 365 556 404 493 393 524 l 350 571 b 486 592 410 572 449 574 b 550 678 494 596 550 624 b 717 256 656 567 717 418 b -4 -412 717 -115 392 -412 b -668 -4 -306 -412 -558 -246 b -725 235 -703 69 -722 150 b -668 -25 -722 142 -703 56 z m 122 314 b 131 508 122 379 126 446 b 174 564 140 529 153 553 b 228 571 192 568 207 571 l 261 571 b 326 460 310 543 326 503 b 251 374 311 411 272 379 b 239 361 246 368 239 365 b 243 356 239 358 240 357 l 249 356 b 308 385 269 356 289 365 b 293 361 304 376 300 368 b 281 346 288 354 283 349 b 122 304 225 306 183 304 z "},"q":{"ha":507,"x_min":0,"x_max":0,"o":"m 582 -40 b 424 93 543 14 489 56 b 472 313 456 142 472 213 b 392 571 472 444 440 522 b 519 592 443 571 506 578 b 540 626 529 599 540 614 b 538 635 540 631 539 633 l 533 633 b 450 625 513 628 499 625 l 236 625 b 215 624 226 625 219 625 l 125 624 b 81 621 107 622 92 621 b 28 625 60 621 49 624 b 72 594 54 614 65 607 b 75 581 74 592 75 588 b 68 558 75 571 72 563 b 38 511 56 546 46 529 b -61 293 -18 417 -49 342 b -67 256 -65 283 -65 268 b -293 278 -67 264 -293 274 l -319 278 b -67 217 -224 257 -140 238 b -62 175 -67 197 -65 183 b -57 214 -61 186 -61 199 b 10 196 -33 208 -11 201 b 236 0 39 46 129 0 b 386 49 293 0 346 11 b 435 19 410 36 425 25 b -74 -224 218 -25 194 -224 b -218 -208 -117 -224 -162 -219 b -12 -297 -157 -269 -83 -297 b 86 -276 22 -297 56 -290 b 472 -37 221 -217 324 -37 b 583 -69 507 -37 544 -49 z m 74 313 b 219 571 74 486 136 571 l 243 571 b 399 313 328 571 399 496 b 188 196 363 263 261 196 b 154 201 176 196 164 197 b 82 219 128 208 106 214 b 74 313 76 246 74 276 z m 236 74 b 96 169 176 74 125 99 b 307 89 190 138 257 113 b 236 74 286 78 263 74 z m 354 129 b 211 185 308 150 260 168 b 393 242 296 189 360 215 b 354 129 386 193 374 156 z m 0 272 b 3 236 0 260 1 249 b -49 247 -14 240 -32 243 b 1 364 -39 281 -25 321 b 0 339 0 356 0 347 z "},"u":{"ha":600,"x_min":0,"x_max":0,"o":"m 115 314 b 124 508 115 379 119 446 b 144 563 131 526 133 544 b 208 604 151 576 208 590 b 169 625 208 619 186 625 l -151 625 b -175 607 -161 625 -175 617 b -172 601 -175 606 -174 603 b -69 583 -154 590 -86 583 l -57 583 b 42 515 -8 583 21 558 l 42 376 b -29 257 42 343 -1 268 b -57 229 -40 251 -57 244 b -54 219 -57 228 -56 225 b -37 214 -50 215 -44 214 b 38 256 -14 214 17 239 b 43 260 39 257 42 258 l 43 181 b 88 29 43 107 56 61 b 139 -10 110 7 121 1 b 347 -54 176 -32 236 -53 l 301 -39 b 254 -17 289 -35 272 -26 b 439 111 325 -17 390 44 l 439 38 b 436 -40 439 8 438 -24 b 429 -72 435 -58 431 -67 l 426 -82 b 425 -96 425 -86 425 -90 b 439 -119 425 -106 428 -108 b 450 -124 442 -122 446 -124 b 460 -121 454 -124 458 -122 b 694 64 551 -3 653 53 b 739 78 707 68 739 69 b 696 94 739 88 706 94 b 614 83 653 94 636 90 b 544 61 592 76 560 61 b 508 185 526 61 508 83 l 508 450 b 556 571 508 496 525 556 b 668 592 604 575 653 579 b 689 626 678 599 689 614 b 686 635 689 631 688 633 l 682 633 b 599 625 661 628 647 625 l 344 625 b 317 601 326 619 317 611 b 369 572 317 589 336 576 b 426 451 401 561 426 529 l 426 394 b 347 325 411 354 368 331 b 335 313 342 319 335 317 b 339 307 335 310 336 308 l 346 307 b 426 347 372 307 408 319 l 426 333 b 304 238 400 293 328 246 b 289 224 299 232 289 229 b 293 218 289 222 290 221 l 308 217 b 424 256 346 217 396 229 b 240 69 413 194 311 74 b 228 68 236 68 232 68 l 218 68 b 121 126 196 68 164 76 b 113 176 115 142 113 158 l 113 201 b 115 224 113 206 114 214 z "},"s":{"ha":451,"x_min":0,"x_max":0,"o":"m -842 -31 b -178 -471 -732 -290 -479 -471 b 544 250 221 -471 544 -150 b -178 972 544 649 221 972 b -865 467 -500 972 -774 761 b -897 288 -883 410 -893 350 b -860 463 -893 349 -881 407 b -776 624 -839 519 -811 574 b 63 597 -710 608 51 608 b 68 583 67 593 68 589 b 64 572 68 579 67 576 b 21 468 43 550 21 517 b 39 374 21 431 22 406 l 40 369 l 44 363 b 154 232 74 308 117 250 b 161 238 158 233 161 236 b 143 260 161 243 144 250 b 110 301 138 267 125 281 b 165 279 129 289 147 282 b 314 229 214 268 269 274 b 332 161 324 218 332 204 b 196 58 332 115 278 58 b 83 97 158 58 106 65 b 63 171 76 107 63 133 b 68 208 63 182 64 196 l 32 208 b -33 -21 21 160 -11 54 l -135 -347 b -4 -35 -100 -285 -67 -219 b 71 18 18 6 42 18 b 197 0 106 18 149 0 b 353 35 251 0 299 0 b 417 176 399 64 417 111 b 240 422 417 282 318 378 b 238 414 239 421 238 418 b 256 388 238 407 243 397 l 296 343 b 274 349 289 347 281 347 b 118 397 222 360 154 357 b 99 464 103 413 99 440 b 207 567 99 514 122 567 b 318 546 244 567 283 567 b 335 506 324 542 335 528 b 321 457 335 493 332 478 l 356 457 b 417 625 368 506 399 569 b 543 250 493 526 543 389 b -178 -418 543 -121 218 -418 b -842 -10 -479 -418 -732 -251 b -899 229 -876 64 -896 144 b -842 -31 -896 136 -876 50 z m 188 625 b 172 624 182 625 176 625 l -58 614 b -775 624 -303 619 -729 624 b -178 919 -646 801 -426 919 b 400 649 60 919 267 811 b 332 607 379 617 358 607 b 206 625 294 607 254 625 z "},"v":{"ha":513,"x_min":0,"x_max":0,"o":"m -92 625 b -99 617 -94 622 -97 619 b -106 601 -103 613 -106 607 b -89 586 -106 594 -100 590 l -54 586 b 10 561 -31 586 -10 578 b 83 374 47 532 43 510 l 83 353 b 21 204 83 268 53 222 b 17 193 18 200 17 196 b 22 181 17 189 18 185 b 111 267 65 188 104 224 b 160 81 144 136 156 111 b 129 29 160 54 156 39 b 117 13 118 28 117 19 b 167 0 117 4 149 0 l 201 0 b 342 58 278 0 315 25 b 407 164 372 76 407 153 l 421 208 b 435 260 425 221 428 242 b 508 438 481 321 508 388 b 504 467 508 449 507 458 b 443 351 486 417 471 379 l 446 367 b 507 556 472 510 474 525 b 576 586 524 571 556 586 l 590 586 b 606 600 600 590 606 594 b 597 617 606 604 603 610 l 589 625 l 436 625 l 301 635 b 271 617 294 635 272 628 b 338 567 271 601 315 597 b 372 467 356 543 372 521 l 368 428 l 363 386 b 360 367 361 381 361 374 l 342 240 b 268 104 328 181 293 108 b 210 215 250 104 236 114 l 165 393 b 144 526 150 453 144 497 b 156 569 144 550 149 564 b 235 615 174 599 235 603 b 203 635 231 628 210 635 l 68 625 z "},"y":{"ha":557,"x_min":0,"x_max":0,"o":"m 196 49 b 208 42 196 44 200 42 b 251 83 231 42 239 72 b 263 69 258 83 263 75 l 263 -8 b 258 -136 263 -47 261 -108 b 253 -168 257 -154 254 -162 l 250 -178 b 249 -192 249 -182 249 -186 b 263 -215 249 -201 251 -204 b 274 -219 265 -218 269 -219 b 283 -217 278 -219 282 -218 b 518 -32 375 -99 476 -43 b 563 -18 531 -28 563 -26 b 519 -1 563 -8 529 -1 b 438 -12 476 -1 460 -6 b 368 -35 415 -19 383 -35 b 332 89 350 -35 332 -12 l 332 165 l 365 222 b 542 560 450 367 494 531 b 615 586 565 575 594 586 l 667 586 b 692 608 688 592 692 599 b 690 614 692 610 692 613 l 685 625 l 382 625 b 363 626 378 625 372 626 b 342 617 353 626 343 626 b 385 575 342 597 369 601 b 396 526 392 563 396 546 b 292 242 396 461 357 360 b 190 524 226 358 190 457 b 200 575 190 544 193 563 b 243 614 211 601 243 596 b 222 626 242 625 232 626 b 203 625 213 626 207 625 l -100 625 b -104 619 -101 624 -103 621 b -107 608 -106 615 -107 613 b -82 586 -107 599 -103 592 l -31 586 b 43 560 -10 586 19 575 b 126 410 69 543 94 486 l 132 397 b 143 319 142 368 143 342 b 103 214 143 265 124 232 b 99 204 100 210 99 206 b 107 193 99 200 101 197 b 181 292 147 206 181 251 b 219 222 193 268 204 244 l 244 179 b 196 49 240 136 214 89 z "},"z":{"ha":572,"x_min":0,"x_max":0,"o":"m -89 47 b 110 117 -22 104 53 117 b 213 100 161 117 200 106 b 236 90 219 96 226 94 b 903 -69 340 46 553 -47 b 200 189 571 -14 211 160 b 192 217 194 201 192 210 b 208 254 192 226 197 239 l 275 367 b 385 528 336 472 360 503 b 424 563 393 535 406 547 b 492 586 442 578 464 586 l 518 586 b 543 608 539 592 543 599 l 536 625 l -446 625 b -428 597 -450 625 -428 600 b 115 583 -421 590 61 583 b 278 561 188 579 263 583 b 226 426 286 543 288 521 b 85 351 172 369 122 351 b 56 356 74 351 64 353 b 39 340 40 356 40 350 b 110 317 60 325 83 317 b 171 336 132 317 153 324 l 135 274 b 35 151 103 219 83 186 b 8 133 29 147 21 140 l -22 115 b -83 82 -40 104 -76 86 b -103 60 -100 75 -103 64 b -89 47 -103 56 -99 51 z "},"x":{"ha":536,"x_min":0,"x_max":0,"o":"m -92 -267 b 156 76 -24 -108 67 43 b 322 142 204 94 322 74 b 318 167 322 149 321 157 b 243 122 300 138 275 122 b 172 139 224 122 200 128 l 267 289 l 300 232 b 368 133 349 194 368 163 b 279 51 368 88 322 57 b 336 31 297 38 315 31 b 406 42 363 31 388 42 b 417 39 410 42 413 40 b 594 -139 501 0 378 -78 b 369 258 543 13 449 128 l 317 344 l 331 367 b 490 560 415 510 444 531 b 564 586 514 575 543 586 l 615 586 b 640 608 636 592 640 599 b 639 614 640 610 640 613 l 633 625 l 332 625 b 311 626 328 625 321 626 b 289 617 300 626 290 626 b 333 575 289 596 322 601 b 336 557 335 571 336 565 b 267 401 336 528 318 483 l 242 443 b 196 556 210 499 196 532 b 200 575 196 563 197 569 b 243 614 211 601 243 596 b 222 626 242 625 232 626 b 203 625 213 626 207 625 l -69 625 b -74 619 -71 624 -72 621 b -76 608 -75 615 -76 613 b -51 586 -76 599 -72 592 l -31 586 b 43 560 -10 586 19 575 b 203 367 89 531 118 510 l 215 344 l 169 267 b 29 193 115 211 67 193 b -1 197 17 193 7 194 b -18 182 -17 197 -17 192 b 53 158 0 167 24 158 b 114 176 75 158 97 164 b -92 -267 -8 -19 -50 -61 z m 201 256 b 210 243 207 251 210 247 b 206 233 210 239 208 236 b 200 231 204 232 201 231 l 211 222 l 204 213 l 168 238 l 174 246 b 176 254 178 247 175 250 b 186 261 179 258 182 261 b 201 256 189 261 194 260 z m 276 368 b 285 354 282 364 285 358 b 282 346 285 353 283 350 b 275 340 281 344 278 342 l 286 332 l 281 325 l 243 350 l 249 357 b 253 365 253 358 249 361 b 265 372 256 369 260 372 b 276 368 268 372 272 371 z m 185 206 l 167 217 b 160 213 163 217 160 215 b 179 199 160 211 161 211 l 174 189 l 156 201 b 150 200 153 201 151 201 b 168 182 150 196 150 194 l 163 172 l 136 190 l 142 199 b 144 207 142 200 143 203 b 154 213 149 213 150 211 b 165 226 154 222 158 226 b 171 225 168 226 169 226 l 190 213 z m 221 286 b 231 272 228 282 231 276 b 228 264 231 271 229 268 b 214 254 224 257 219 254 b 201 258 210 254 206 256 b 193 272 196 263 193 267 b 197 283 193 275 194 279 b 208 292 201 289 204 292 b 221 286 211 292 215 290 z m 286 378 b 292 376 288 376 289 376 b 296 378 293 376 294 376 l 297 382 l 296 386 l 301 394 b 307 385 306 390 307 388 b 303 374 307 381 306 378 b 292 365 299 368 294 365 b 279 371 289 365 285 367 b 269 385 272 375 269 379 b 272 394 269 388 271 390 b 285 401 276 399 281 401 b 299 396 289 401 293 400 z m 160 168 l 157 164 b 150 153 157 163 151 157 b 140 144 146 147 142 144 b 133 147 139 144 138 146 b 128 156 129 150 128 153 b 135 169 128 160 131 165 l 132 174 b 129 171 131 174 129 172 b 124 156 129 167 128 161 b 119 163 121 158 119 161 b 124 175 119 165 121 169 b 133 182 126 179 129 182 b 140 179 135 182 136 181 z m 258 317 b 265 304 263 313 265 308 b 264 300 265 303 265 301 l 260 294 l 253 300 b 254 304 254 301 254 303 b 253 310 254 306 254 308 l 222 317 l 228 325 l 247 322 l 235 336 l 242 346 z m 129 146 b 136 135 133 143 136 139 b 132 125 136 132 135 129 b 118 117 128 119 122 117 b 107 121 114 117 111 118 b 99 133 101 125 99 129 b 103 144 99 136 100 140 b 113 153 107 150 110 153 b 121 149 115 153 118 151 l 115 140 b 108 138 111 140 108 139 b 113 129 108 133 110 131 b 119 126 114 128 117 126 b 126 129 122 126 125 128 b 122 136 126 131 125 133 z m 244 292 b 238 286 242 288 239 286 b 231 289 236 286 235 288 l 218 299 l 215 294 l 210 299 l 211 303 l 203 308 l 208 317 l 217 310 l 221 317 l 226 313 l 222 307 l 236 297 b 242 301 238 297 239 299 l 249 297 z m 269 358 b 263 361 268 360 265 361 b 258 360 261 361 260 361 l 257 356 b 263 349 257 351 258 350 b 271 344 265 346 268 344 b 275 349 272 344 274 346 b 269 358 275 353 274 357 z m 214 278 b 207 281 210 279 208 281 b 203 276 204 281 203 279 b 207 268 203 274 204 271 b 215 265 208 267 211 265 b 221 268 218 265 219 267 b 214 278 221 272 218 275 z m 193 246 b 188 239 185 250 178 243 l 196 235 b 199 238 197 235 199 236 b 196 242 199 239 197 240 z m 138 161 b 140 156 138 157 139 156 b 144 157 142 156 143 156 b 146 163 146 158 146 160 b 142 169 146 164 144 167 z m 288 392 b 279 389 283 392 281 390 b 281 382 279 385 279 383 z "},"w":{"ha":696,"x_min":0,"x_max":0,"o":"m 314 750 l 764 750 b 1014 250 918 633 1014 451 b 307 -418 1014 -115 697 -411 l 307 247 l 279 -418 b -372 -7 -17 -412 -262 -244 b -428 229 -407 67 -425 144 b -371 -31 -425 136 -406 50 b 293 -471 -261 -290 -8 -471 b 1015 250 692 -471 1015 -150 b 807 757 1015 449 935 625 l 1319 757 l 1181 774 l 794 774 b 656 867 751 807 704 838 b 293 971 549 928 425 971 b -206 771 97 971 -76 897 l -783 771 l -219 747 b -372 526 -285 686 -335 613 b -428 265 -407 446 -426 358 b -360 532 -425 360 -403 449 b -179 756 -315 619 -256 693 l 272 756 l 293 451 z m -208 625 b -218 617 -212 622 -215 619 b -226 600 -224 610 -226 604 b -211 586 -226 594 -221 590 l -114 586 b 33 482 -35 586 18 582 l 38 446 l 38 440 b -36 315 38 396 -8 329 l -36 308 b -25 290 -36 296 -32 290 b 39 336 4 297 32 332 b 50 324 43 335 49 336 l 53 289 b 57 197 56 264 57 233 l 57 189 b 53 150 57 165 53 163 l 53 142 b 69 118 54 132 57 129 b 81 114 72 115 76 114 b 90 117 85 114 89 115 b 303 300 160 219 251 282 b 518 115 363 232 450 115 l 538 115 b 585 146 554 115 583 136 l 574 156 l 569 158 b 546 196 554 169 550 175 b 579 482 546 232 553 263 b 724 586 590 582 644 586 l 821 586 b 836 600 831 590 836 594 b 826 617 836 606 831 611 l 818 625 l 417 625 b 413 619 414 625 413 624 b 417 606 413 615 414 611 b 475 581 428 586 442 603 b 494 542 490 569 494 557 l 494 529 b 493 517 494 525 494 521 l 488 453 b 407 346 471 382 435 353 b 400 335 403 342 400 338 b 403 328 400 333 401 332 b 413 326 407 328 408 326 b 478 357 436 326 463 339 l 475 331 b 443 246 468 257 456 246 l 429 247 b 339 351 403 251 350 333 b 303 438 324 374 318 388 b 274 393 292 438 278 404 b 271 354 272 388 271 369 b 274 332 271 342 272 335 l 239 321 b 172 299 218 314 188 299 b 132 356 154 299 136 307 l 117 508 b 115 521 115 513 115 517 l 115 533 b 136 579 115 554 119 569 b 225 603 163 594 225 588 b 196 625 224 614 203 625 z m 293 936 b 743 772 464 936 619 865 l 328 772 l 328 788 l 292 818 l 258 788 l 258 778 l -157 778 b 293 936 -33 864 122 936 z "},"^":{"ha":0,"x_min":0,"x_max":0,"o":"m -624 278 b -2078 556 -1068 472 -1567 556 b -4306 83 -2846 556 -3637 365 l -4306 71 b -2039 522 -3650 349 -2817 522 b -625 260 -1512 522 -1018 442 z "},":":{"ha":417,"x_min":0,"x_max":0,"o":"m 56 389 b 117 328 56 354 82 328 b 179 389 151 328 179 354 b 117 451 179 424 151 451 b 56 389 82 451 56 424 z m 217 389 b 278 328 217 354 243 328 b 340 389 313 328 340 354 b 278 451 340 424 313 451 b 217 389 243 451 217 424 z m 56 181 b 117 119 56 146 82 119 b 179 181 151 119 179 146 b 117 243 179 215 151 243 b 56 181 82 243 56 215 z m 217 181 b 278 119 217 146 243 119 b 340 181 313 119 340 146 b 278 243 340 215 313 243 b 217 181 243 243 217 215 z "},";":{"ha":417,"x_min":0,"x_max":0,"o":"m 217 181 b 278 119 217 146 243 119 l 289 119 b 167 -25 263 33 194 -10 b 69 -69 149 -36 81 -54 b 340 169 221 -51 340 42 l 340 181 b 278 243 340 215 313 243 b 217 181 243 243 217 215 z m 56 389 b 117 328 56 354 82 328 b 179 389 151 328 179 354 b 117 451 179 424 151 451 b 56 389 82 451 56 424 z m 217 389 b 278 328 217 354 243 328 b 340 389 313 328 340 354 b 278 451 340 424 313 451 b 217 389 243 451 217 424 z m 56 181 b 117 119 56 146 82 119 b 179 181 151 119 179 146 b 117 243 179 215 151 243 b 56 181 82 243 56 215 z "},",":{"ha":278,"x_min":0,"x_max":0,"o":"m 78 61 b 139 0 78 26 104 0 l 150 0 b 28 -144 124 -86 56 -129 b -69 -189 10 -156 -58 -174 b 201 50 82 -171 201 -78 l 201 61 b 139 124 201 96 174 124 b 78 61 104 124 78 96 z "},".":{"ha":278,"x_min":0,"x_max":0,"o":"m 78 61 b 139 0 78 26 104 0 b 201 61 174 0 201 26 b 139 124 201 96 174 124 b 129 122 135 124 131 124 b 251 267 156 207 224 253 b 349 311 269 278 338 296 b 78 72 196 293 78 200 z "},"\\":{"ha":139,"x_min":0,"x_max":0,"o":"m -653 969 b -1311 543 -946 969 -1197 794 b -1374 278 -1349 461 -1369 372 b -1310 522 -1369 365 -1347 446 b -653 917 -1194 754 -946 917 b 43 303 -329 917 -12 681 l 43 69 l 68 -347 l 68 972 l 54 826 l 54 426 b -653 969 -35 739 -317 969 z "},"+":{"ha":417,"x_min":0,"x_max":0,"o":"m 226 463 l 226 625 l 207 833 l 207 458 l 196 290 l -494 290 l -860 260 l 182 260 l 182 250 l 206 183 l 206 -208 l 224 -347 l 224 183 l 251 250 l 251 260 l 972 292 l 238 292 z "},"[":{"ha":278,"x_min":0,"x_max":0,"o":"m -99 821 b -19 810 -76 814 -40 814 b 63 758 40 794 56 768 b 69 700 68 747 69 718 l 69 417 b 29 322 69 372 44 338 b -50 268 3 293 -29 275 l -51 265 b -57 253 -56 258 -57 254 b -50 243 -57 249 -54 244 b -21 236 -40 239 -31 236 b 54 268 7 236 42 250 b 69 233 69 267 69 254 l 69 -81 b 6 -243 69 -169 69 -175 l -1 -251 l -3 -256 b 4 -269 -3 -261 0 -269 b 25 -247 11 -262 18 -254 b 61 -212 36 -235 50 -222 b 228 -139 92 -186 164 -143 l 363 -139 b 1067 -142 529 -139 818 -142 l 1356 -142 b 1503 -139 1424 -142 1475 -140 l 1525 -139 b 1528 -131 1526 -135 1528 -132 b 1503 -128 1526 -129 1518 -128 b 1193 -129 1454 -128 1338 -129 b 110 -86 786 -129 147 -124 b 107 72 108 -53 107 4 l 107 519 b 108 663 107 585 108 635 l 108 694 b 126 781 108 729 114 774 b 336 817 171 810 261 817 b 449 814 385 817 428 814 b 461 815 456 814 460 814 b 488 831 474 819 488 826 l 485 831 b 351 833 482 833 451 833 l -104 833 b -111 831 -108 833 -111 832 b -99 821 -111 828 -107 825 z "},"]":{"ha":278,"x_min":0,"x_max":0,"o":"m 376 821 b 389 831 385 825 389 828 b 382 833 389 832 386 833 l -208 833 b -185 815 -208 822 -190 819 l -176 815 b -74 818 -160 817 -122 818 b 151 781 4 818 108 813 b 169 694 164 774 169 729 l 169 417 b 131 322 169 371 146 338 b 51 268 104 293 72 275 l 50 265 b 44 253 46 258 44 254 b 51 243 44 249 47 244 b 81 236 61 239 71 236 b 156 268 108 236 143 250 b 171 233 171 267 171 254 b 168 -86 171 40 168 -42 b -915 -129 131 -124 -508 -129 b -1225 -128 -1060 -129 -1176 -128 l -1250 -128 b -1249 -135 -1250 -132 -1250 -133 l -1247 -139 b -978 -142 -1246 -140 -1135 -142 l -803 -142 b -94 -139 -557 -142 -264 -139 l 50 -139 b 215 -149 115 -143 176 -139 b 226 -151 219 -150 222 -150 b 271 -165 242 -156 242 -154 b 281 -153 276 -165 281 -158 b 278 -149 281 -151 279 -150 b 208 -69 217 -119 208 -114 l 208 711 b 211 744 208 724 210 735 b 297 810 228 776 247 797 b 376 821 318 814 354 814 z "},"&":{"ha":625,"x_min":0,"x_max":0,"o":"m 49 -156 b 44 -74 46 -135 44 -108 b 61 104 44 -14 50 54 b 115 35 71 74 89 50 b 228 0 154 8 190 4 l 271 0 b 392 22 321 0 360 22 b 442 -37 415 22 432 8 l 449 -37 b 457 -29 454 -37 457 -35 l 457 313 l 431 208 b 389 107 421 149 399 117 b 272 58 363 78 310 58 b 136 161 190 58 136 115 b 154 229 136 204 144 218 b 303 279 199 274 253 268 b 561 463 350 292 506 318 b 572 546 565 469 572 501 b 503 735 572 600 558 672 b 525 646 510 713 518 681 b 446 601 504 611 478 601 b 254 625 396 601 332 625 l 99 625 b 38 622 81 624 60 622 b -204 625 -31 622 -119 625 l 111 597 b 117 583 115 593 117 589 b 113 572 117 579 115 576 b 69 468 92 550 69 517 b 88 374 69 431 71 406 b 129 322 97 353 111 335 b 71 260 106 307 86 286 l 68 256 b 10 36 35 199 10 124 b 49 -156 10 -24 21 -87 z m 515 479 b 271 356 471 389 354 367 b 167 397 232 361 193 369 b 147 464 151 413 147 440 b 256 567 147 514 171 567 b 367 546 293 567 332 567 b 383 506 372 542 383 528 b 369 457 383 493 381 478 l 404 457 b 525 625 415 504 507 569 b 528 629 525 626 526 628 b 532 571 531 610 532 590 b 524 506 532 547 529 525 b 515 479 519 496 519 485 z "},"-":{"ha":417,"x_min":0,"x_max":0,"o":"m 196 300 l -860 264 l 182 264 l 251 253 l 1293 292 l 238 292 z "},"'":{"ha":278,"x_min":0,"x_max":0,"o":"m 78 840 b 139 779 78 806 104 779 l 150 779 b 28 635 124 693 56 650 b -69 590 10 624 -58 606 b 201 829 82 608 201 701 l 201 840 b 139 903 201 875 174 903 b 78 840 104 903 78 875 z "},"*":{"ha":278,"x_min":0,"x_max":0,"o":"m 164 868 l 214 922 l 150 881 l 150 946 l 138 1042 l 126 892 l 92 932 l -15 1042 l 114 869 l 32 861 l 114 851 l 57 792 l 126 838 l 128 831 l 128 758 l 139 657 l 149 825 l 271 706 l 168 844 l 160 851 l 236 861 z "},"=":{"ha":417,"x_min":0,"x_max":0,"o":"m -208 417 l 161 400 l 625 417 l 263 439 z m -208 278 l 161 261 l 625 278 l 263 300 z "},"?":{"ha":625,"x_min":0,"x_max":0,"o":"m 547 -156 b 585 35 574 -89 585 -25 b 526 256 585 124 561 199 l 525 260 b 467 322 510 285 490 306 b 508 374 485 338 499 354 b 526 468 525 406 526 431 b 483 572 526 517 504 550 b 481 578 482 574 481 576 b 499 599 481 585 489 594 b 549 675 539 619 549 649 b 538 725 549 696 542 714 b 535 731 536 726 535 729 l 535 725 b 428 621 535 660 510 621 b 376 625 413 621 396 622 l 342 625 b 150 601 264 625 200 601 b 71 646 118 601 92 611 b 93 735 76 683 86 714 b 24 546 38 672 24 600 b 35 463 24 501 31 469 b 293 279 90 318 246 292 b 442 229 342 268 397 274 b 468 154 451 218 468 197 b 278 -12 468 110 433 17 b 329 -22 288 -19 306 -22 b 460 11 372 -22 428 -11 b 535 104 486 29 525 75 b 550 -72 546 54 550 -12 b 547 -156 550 -104 549 -135 z m 81 479 b 72 506 76 485 76 496 b 64 571 67 525 64 547 b 68 628 64 590 65 610 b 192 457 90 569 181 506 l 226 457 b 213 506 215 478 213 493 b 229 546 213 528 224 542 b 340 567 264 567 303 567 b 449 464 422 567 449 514 b 429 397 449 440 444 413 b 325 356 403 369 364 361 b 81 479 240 367 125 389 z m 157 90 b 247 0 157 40 197 0 b 338 90 297 0 338 40 b 247 181 338 140 297 181 b 157 90 197 181 157 140 z "},"<":{"ha":417,"x_min":0,"x_max":0,"o":"m 204 296 l 108 346 l 194 390 l 569 625 l 225 444 l 88 357 l -153 486 l 69 347 l -153 208 l 88 336 l 178 276 l 569 69 z "},">":{"ha":417,"x_min":0,"x_max":0,"o":"m 176 275 l -153 69 l 239 276 l 329 336 l 569 208 l 347 347 l 569 486 l 329 357 l 192 444 l -153 625 l 222 390 l 308 346 z "},"_":{"ha":417,"x_min":0,"x_max":0,"o":"m 196 -86 l -319 -111 l 424 -147 l 1293 -111 l 238 -111 z "},"\"":{"ha":300,"x_min":0,"x_max":0,"o":"m 147 840 b 208 779 147 806 174 779 l 219 779 b 97 635 193 693 125 650 b 0 590 79 624 11 606 b 271 829 151 608 271 701 l 271 840 b 208 903 271 875 243 903 b 147 840 174 903 147 875 z m 153 757 b 92 818 153 792 126 818 l 81 818 b 203 963 107 903 175 949 b 300 1007 221 974 289 992 b 29 768 147 989 29 896 l 29 757 b 92 694 29 722 57 694 b 153 757 126 694 153 722 z "},"!":{"ha":300,"x_min":0,"x_max":0,"o":"m 49 -24 b 139 -114 49 -74 89 -114 b 229 -24 189 -114 229 -74 b 139 67 229 26 189 67 b 121 64 135 67 128 65 l 124 68 b 243 163 150 101 183 142 b 260 164 246 164 251 164 l 288 164 b 328 175 306 164 321 165 b 340 207 336 188 340 197 b 336 225 340 211 339 218 b 281 200 322 208 304 200 b 215 222 257 200 236 207 b 189 264 203 232 193 249 b 186 339 188 297 186 322 l 186 422 b 188 482 186 435 186 456 b 208 563 188 519 192 544 b 278 608 218 572 278 594 b 268 632 278 625 275 628 l 165 625 l -21 625 b -44 607 -31 625 -44 617 b -42 601 -44 606 -43 603 b 0 583 -24 589 -15 583 l 13 583 b 101 533 56 583 81 565 b 103 522 103 529 103 525 l 103 489 b 63 394 103 444 78 410 b -17 340 36 365 4 347 l -21 332 b -24 325 -22 329 -24 326 b -17 315 -24 321 -21 317 b 13 308 -7 311 3 308 b 88 340 40 308 75 322 b 103 306 103 339 103 326 l 103 110 b 72 38 103 92 82 58 b 49 -24 57 22 49 1 z "},"$":{"ha":451,"x_min":0,"x_max":0,"o":"m -4 -35 b 71 18 18 6 42 18 b 197 0 106 18 149 0 l 197 -69 b 125 -189 197 -132 167 -140 l 118 -197 l 117 -201 b 124 -215 117 -207 119 -215 b 144 -193 131 -208 138 -200 b 181 -158 156 -181 169 -168 b 256 -137 201 -142 228 -137 l 336 -137 b 353 -139 340 -139 346 -139 b 900 -42 618 -139 894 -47 b 903 -33 901 -37 903 -35 b 376 -108 800 -74 540 -108 b 238 -86 306 -108 254 -101 b 235 0 236 -65 236 -35 b 353 35 274 1 313 8 b 417 176 399 64 417 111 b 240 422 417 282 318 378 b 238 414 239 421 238 418 b 256 388 238 407 243 397 l 296 343 b 274 349 289 347 281 347 l 235 354 l 235 567 b 318 546 263 565 292 561 b 335 506 324 542 335 528 b 321 457 335 493 332 478 l 356 457 b 417 625 368 506 399 569 b 406 660 407 646 413 644 b 331 607 383 617 358 607 b 235 622 303 607 272 618 b 236 663 235 639 236 653 b 231 736 236 681 231 708 b 256 801 231 764 235 789 b 324 828 289 822 308 828 b 357 815 344 828 350 815 b 386 828 372 819 385 828 l 381 831 b 349 833 368 832 358 833 l 288 833 l 156 833 b 139 824 149 833 139 833 b 190 758 156 801 181 785 b 197 700 196 747 197 718 l 197 625 b 172 624 185 625 176 625 l 83 619 b 11 625 51 621 38 621 l 17 622 b 63 597 39 613 53 607 b 68 583 67 593 68 589 b 64 572 68 579 67 576 b 21 468 43 550 21 517 b 39 374 21 431 22 406 b 96 310 51 347 72 326 b 36 297 68 303 46 299 b 7 289 26 293 7 299 b 8 283 7 288 7 285 b 40 279 17 281 28 279 b 125 293 67 279 93 283 b 142 286 132 289 138 288 b 79 256 121 268 94 260 b 64 242 75 256 64 247 b 78 236 64 238 68 236 b 182 276 110 236 182 257 l 188 275 b 197 242 197 271 197 257 l 197 58 b 83 97 160 58 106 65 b 63 171 76 107 63 133 b 68 208 63 182 64 196 l 32 208 l 21 163 b -18 -21 10 111 -10 33 z m 118 397 b 99 464 103 413 99 440 b 197 567 99 513 121 563 l 197 388 b 193 361 197 378 196 369 b 118 397 164 367 139 376 z m 314 229 b 332 161 324 218 332 204 b 235 63 332 122 294 78 l 235 268 b 314 229 263 264 288 256 z "},"{":{"ha":347,"x_min":0,"x_max":0,"o":"m 306 833 b 79 535 201 833 108 708 b 61 329 61 431 61 375 l 61 319 b 40 136 46 240 40 179 b 60 32 40 96 53 32 b 58 49 58 38 58 43 l 58 69 b 69 175 58 99 60 132 b 306 -208 85 -68 182 -208 b 175 -7 251 -182 207 -108 b 306 -69 214 -49 257 -69 b 143 314 224 -29 158 125 b 306 694 158 507 224 649 b 172 621 256 694 211 669 b 306 833 201 726 250 801 z "},"}":{"ha":347,"x_min":0,"x_max":0,"o":"m 40 833 b 174 621 96 801 144 726 b 40 694 135 669 90 694 b 203 314 122 649 188 507 b 40 -69 188 125 122 -29 b 171 -7 89 -69 132 -49 b 40 -208 139 -108 94 -182 b 276 175 164 -208 261 -68 b 288 69 286 132 288 99 l 288 49 b 286 32 288 43 288 38 b 306 136 293 32 306 96 b 285 319 306 179 300 240 l 285 329 b 267 535 285 375 285 431 b 40 833 238 708 144 833 z "},"":{"ha":833,"x_min":0,"x_max":0,"o":"m 69 347 b 417 0 69 154 224 0 b 764 347 610 0 764 154 b 417 694 764 540 610 694 b 139 556 301 694 201 639 l 93 556 b 78 547 88 556 78 553 b 93 535 78 538 88 535 b 117 525 108 535 117 532 b 69 347 117 506 69 456 z m 618 233 b 635 299 631 251 635 275 b 624 358 635 325 629 347 b 550 425 604 397 579 419 b 589 350 578 399 589 365 b 579 283 589 324 586 301 b 574 311 579 294 578 304 b 547 326 567 321 557 326 l 540 326 b 556 281 550 314 556 299 b 546 242 556 268 553 254 b 467 218 526 226 500 218 b 350 349 372 218 350 282 b 418 476 350 411 386 450 b 532 510 450 500 489 510 b 703 450 600 510 671 485 b 724 358 714 421 721 390 b 725 339 725 351 725 346 l 725 321 b 493 53 725 171 628 53 b 197 358 350 53 213 192 b 194 399 196 374 194 386 b 225 532 194 447 204 492 l 239 532 b 417 522 322 528 407 525 b 328 456 381 507 351 485 b 250 407 294 424 272 414 b 271 396 253 400 260 396 b 294 400 279 396 288 397 b 283 306 285 378 283 351 b 439 150 283 253 335 150 b 618 233 532 150 578 174 z m 428 664 b 689 481 538 664 635 588 b 463 560 651 529 581 560 b 239 557 413 560 322 558 b 428 664 279 622 346 664 z "},"":{"ha":833,"x_min":0,"x_max":0,"o":"m 69 347 b 417 0 69 154 224 0 b 649 88 506 0 586 33 b 744 49 681 61 713 49 b 843 81 776 49 808 60 b 822 79 839 79 832 79 b 692 135 763 79 721 106 b 764 347 736 194 764 265 b 700 546 764 421 740 490 b 740 556 724 549 736 551 b 754 579 746 560 754 569 b 751 586 754 582 753 585 l 747 585 b 692 578 735 581 725 578 l 676 578 b 417 694 611 649 521 694 b 157 578 311 694 222 649 l 92 578 b 75 567 85 578 75 572 b 78 563 75 565 76 564 b 139 556 88 556 121 556 b 69 347 94 496 69 425 z m 493 53 b 318 121 428 53 368 78 l 324 124 b 464 165 367 150 413 165 l 472 174 b 394 200 460 186 406 193 l 394 321 b 414 319 399 319 404 319 l 428 319 b 443 321 432 319 438 319 b 564 243 503 315 538 286 b 575 153 574 204 575 174 l 575 132 b 582 117 579 128 576 117 b 592 179 589 129 592 156 b 633 104 604 151 617 125 b 493 53 594 69 547 53 z m 339 215 b 293 146 339 194 321 167 b 197 358 242 200 207 275 b 194 397 196 375 194 386 b 238 554 194 456 208 508 b 338 503 286 550 338 538 l 338 407 b 306 358 338 381 333 358 b 297 360 303 360 300 360 b 289 361 292 360 289 360 b 282 363 285 361 283 363 b 271 353 276 363 275 358 b 339 322 289 338 318 326 z m 725 358 b 726 342 726 353 726 347 l 726 325 b 676 151 726 258 708 197 b 628 236 649 185 635 221 b 526 349 601 290 578 328 b 538 356 531 350 533 351 b 592 467 569 382 592 417 b 564 532 592 488 582 508 l 575 540 b 631 543 597 540 614 543 l 651 543 b 725 358 690 492 715 429 z m 428 664 b 621 578 499 664 567 632 l 254 578 b 428 664 297 632 356 664 z m 393 361 b 400 499 393 407 396 453 b 419 528 406 514 414 522 b 431 536 424 532 426 535 b 464 540 440 538 451 540 l 492 540 b 538 464 524 522 538 492 b 483 404 526 429 499 408 b 475 394 479 400 475 399 b 481 389 475 390 476 389 b 504 397 486 389 494 392 b 521 408 514 403 519 407 b 517 401 519 407 518 404 b 513 394 515 399 514 396 b 504 385 510 390 507 386 b 393 356 465 356 436 356 z "},"":{"ha":972,"x_min":0,"x_max":0,"o":"m 0 278 b 278 0 0 126 126 0 l 694 0 b 972 278 846 0 972 126 l 972 694 b 694 972 972 846 846 972 l 278 972 b 0 694 126 972 0 846 z m 104 694 b 278 868 104 789 183 868 l 694 868 b 864 731 778 868 847 808 b 801 707 840 738 814 729 l 735 590 l 676 375 l 625 283 b 460 244 588 232 519 213 l 157 421 b 104 419 140 431 122 429 z m 411 157 b 714 236 517 93 650 136 l 769 335 l 776 351 l 829 546 l 868 611 l 868 278 b 694 104 868 183 789 104 l 278 104 b 106 278 183 104 101 183 l 106 333 z m 474 261 b 544 272 500 243 528 250 b 533 346 563 294 556 329 l 367 464 b 293 449 340 479 311 475 b 307 376 278 425 281 394 z m 610 454 b 679 467 633 436 664 440 b 682 554 697 490 688 515 l 503 657 b 431 644 476 672 446 667 b 442 572 413 617 415 588 z m 542 357 b 614 368 568 342 596 346 b 599 439 632 394 625 424 l 433 558 b 360 546 410 574 378 572 b 375 475 343 522 349 492 z "},"":{"ha":486,"x_min":0,"x_max":0,"o":"m 183 346 l 251 390 l 547 625 l 247 422 l 167 357 l 118 389 l 122 390 l 418 625 l 118 422 l 96 404 l -24 486 l 88 397 l 38 357 l -153 486 l 22 347 l -153 208 l 38 336 l 88 296 l -24 208 l 96 289 l 108 276 l 418 69 l 158 275 l 118 303 l 167 336 l 238 276 l 547 69 l 288 275 z m 106 311 l 54 346 l 107 382 l 151 347 z "},"":{"ha":486,"x_min":0,"x_max":0,"o":"m 107 275 l -153 69 l 157 276 l 228 336 l 276 303 l 236 275 l -24 69 l 286 276 l 299 289 l 418 208 l 307 296 l 357 336 l 547 208 l 372 347 l 547 486 l 357 357 l 307 397 l 418 486 l 299 404 l 276 422 l -24 625 l 272 390 l 276 389 l 228 357 l 147 422 l -153 625 l 143 390 l 211 346 z m 243 347 l 288 382 l 340 346 l 289 311 z "},"":{"ha":694,"x_min":0,"x_max":0,"o":"m 78 61 b 139 0 78 26 104 0 b 201 54 171 0 197 22 b 240 79 217 69 231 75 b 276 88 247 83 272 83 l 263 88 b 199 76 236 88 214 83 b 139 124 192 104 168 124 b 78 61 104 124 78 96 z m 494 61 b 556 0 494 26 521 0 b 618 56 588 0 614 24 b 656 79 633 71 646 75 b 692 88 663 83 688 83 l 678 88 b 615 78 653 88 632 85 b 556 124 608 104 585 124 b 494 61 521 124 494 96 z m 286 61 b 347 0 286 26 313 0 b 410 56 379 0 406 24 b 447 79 425 71 438 75 b 483 88 454 83 479 83 l 469 88 b 407 78 444 88 424 85 b 347 124 400 104 376 124 b 286 61 313 124 286 96 z "},"":{"ha":694,"x_min":0,"x_max":0,"o":"m 315 96 l 363 188 l 375 181 l 332 100 b 625 228 372 117 610 222 l 625 422 l 614 414 b 596 401 607 410 600 406 b 481 322 557 374 519 354 b 433 235 460 289 456 267 b 426 233 432 233 431 233 l 388 250 l 381 256 b 378 265 379 258 378 261 l 388 290 l 369 282 b 313 272 361 282 322 272 l 296 272 b 186 350 242 272 186 288 b 246 481 186 400 214 443 b 424 625 306 542 358 593 l 156 625 b 69 539 101 625 69 590 l 69 156 b 156 69 69 104 100 69 l 539 69 b 625 156 589 69 625 104 l 625 197 l 326 89 z m 222 342 b 265 289 222 314 236 296 l 285 288 b 401 322 322 288 381 299 l 422 353 l 578 625 l 546 625 b 297 461 454 582 371 528 b 222 342 269 440 222 382 z m 539 414 b 563 432 546 418 553 425 b 625 488 578 444 599 461 l 625 582 z m 364 222 l 374 240 l 417 217 l 406 197 z m 354 204 l 360 214 l 403 190 l 397 179 z "},"~":{"ha":0,"x_min":0,"x_max":0,"o":"m -936 721 b -924 699 -936 711 -932 703 b -912 711 -924 707 -919 711 b -903 700 -906 711 -903 707 l -903 694 b -890 703 -899 696 -894 699 b -868 694 -885 697 -878 694 b -833 729 -847 694 -833 708 b -868 764 -833 750 -847 764 b -899 744 -882 764 -892 757 b -910 747 -904 746 -908 747 b -936 721 -925 747 -936 736 z m -1111 199 b -1076 164 -1111 178 -1097 164 b -1042 199 -1056 164 -1042 178 b -1076 233 -1042 219 -1056 233 b -1111 199 -1097 233 -1111 219 z m -972 672 b -950 650 -972 657 -965 650 l -943 650 b -917 625 -942 635 -932 625 b -890 651 -901 625 -890 636 b -917 678 -890 667 -901 678 b -928 675 -918 678 -922 676 b -950 694 -929 688 -937 694 b -972 672 -965 694 -972 688 z m -387 775 b -354 743 -387 757 -372 743 b -322 775 -336 743 -322 757 b -354 808 -322 793 -336 808 b -387 775 -372 808 -387 793 z m -122 133 b -96 107 -122 118 -111 107 b -69 133 -81 107 -69 118 b -96 160 -69 149 -81 160 b -122 133 -111 160 -122 149 z m -694 625 b -669 601 -694 610 -682 601 b -646 625 -657 601 -646 610 b -669 650 -646 640 -657 650 b -694 625 -682 650 -694 640 z m -556 878 b -531 854 -556 863 -543 854 b -507 878 -518 854 -507 863 b -531 903 -507 893 -518 903 b -556 878 -543 903 -556 893 z m -1111 22 b -1089 0 -1111 7 -1104 0 b -1067 22 -1074 0 -1067 7 b -1089 44 -1067 38 -1074 44 b -1111 22 -1104 44 -1111 38 z m -417 325 b -394 303 -417 310 -410 303 b -372 325 -379 303 -372 310 b -394 347 -372 340 -379 347 b -417 325 -410 347 -417 340 z m -625 554 b -603 532 -625 539 -618 532 b -581 554 -587 532 -581 539 b -603 576 -581 569 -587 576 b -625 554 -618 576 -625 569 z m -233 742 b -211 719 -233 726 -226 719 b -189 742 -196 719 -189 726 b -211 764 -189 757 -196 764 b -233 742 -226 764 -233 757 z m -1042 297 b -1021 278 -1042 286 -1032 278 b -1001 297 -1008 278 -1001 285 b -1021 318 -1001 308 -1010 318 b -1042 297 -1032 318 -1042 308 z m -526 674 b -506 654 -526 663 -517 654 b -486 674 -493 654 -486 661 b -506 694 -486 685 -494 694 b -526 674 -517 694 -526 685 z m -903 499 b -882 479 -903 488 -893 479 b -862 499 -869 479 -862 486 b -882 519 -862 510 -871 519 b -903 499 -893 519 -903 510 z m -387 490 b -367 471 -387 479 -378 471 b -347 490 -354 471 -347 478 b -367 511 -347 501 -356 511 b -387 490 -378 511 -387 501 z m -1429 506 b -1408 486 -1429 494 -1419 486 b -1389 506 -1396 486 -1389 493 b -1408 526 -1389 517 -1397 526 b -1429 506 -1419 526 -1429 517 z m -1151 588 b -1131 568 -1151 576 -1142 568 b -1111 588 -1118 568 -1111 575 b -1131 608 -1111 599 -1119 608 b -1151 588 -1142 608 -1151 599 z m 188 86 b 206 68 188 74 193 68 b 225 86 218 68 225 74 b 206 106 225 99 218 106 b 188 86 193 106 188 99 z m -919 433 b -900 415 -919 422 -910 415 b -882 433 -887 415 -882 421 b -900 453 -882 446 -887 453 b -919 433 -910 453 -919 444 z m 103 92 b 121 74 103 79 108 74 b 139 92 133 74 139 79 b 121 110 139 104 133 110 b 103 92 108 110 103 104 z m 208 -104 b 226 -122 208 -117 214 -122 b 244 -104 239 -122 244 -117 b 226 -86 244 -92 239 -86 b 208 -104 214 -86 208 -92 z m -972 504 b -954 486 -972 492 -967 486 b -936 504 -942 486 -936 492 b -954 522 -936 517 -942 522 b -972 504 -967 522 -972 517 z m 179 815 b 197 797 179 803 185 797 b 215 815 210 797 215 803 b 197 833 215 828 210 833 b 179 815 185 833 179 828 z m -972 192 b -956 175 -972 181 -967 175 b -939 192 -944 175 -939 181 b -956 208 -939 203 -944 208 b -972 192 -967 208 -972 203 z m -1136 331 b -1119 314 -1136 319 -1131 314 b -1103 331 -1108 314 -1103 319 b -1119 347 -1103 342 -1108 347 b -1136 331 -1131 347 -1136 342 z m -903 364 b -886 347 -903 353 -897 347 b -869 364 -875 347 -869 353 b -886 381 -869 375 -875 381 b -903 364 -897 381 -903 375 z m -951 364 b -935 347 -951 353 -946 347 b -918 364 -924 347 -918 353 b -935 381 -918 375 -924 381 b -951 364 -946 381 -951 375 z m -1340 572 b -1324 556 -1340 561 -1335 556 b -1307 572 -1312 556 -1307 561 b -1324 589 -1307 583 -1312 589 b -1340 572 -1335 589 -1340 583 z m -122 781 b -106 764 -122 769 -117 764 b -89 781 -94 764 -89 769 b -106 797 -89 792 -94 797 b -122 781 -117 797 -122 792 z m -650 192 b -633 175 -650 181 -644 175 b -617 192 -622 175 -617 181 b -633 208 -617 203 -622 208 b -650 192 -644 208 -650 203 z m -437 678 b -421 661 -437 667 -432 661 b -404 678 -410 661 -404 667 b -421 694 -404 689 -410 694 b -437 678 -432 694 -437 689 z m -69 919 b -53 903 -69 908 -64 903 b -36 919 -42 903 -36 908 b -53 936 -36 931 -42 936 b -69 919 -64 936 -69 931 z m -1042 919 b -1025 903 -1042 908 -1036 903 b -1008 919 -1014 903 -1008 908 b -1025 936 -1008 931 -1014 936 b -1042 919 -1036 936 -1042 931 z m -556 503 b -539 486 -556 492 -550 486 b -522 503 -528 486 -522 492 b -539 519 -522 514 -528 519 b -556 503 -550 519 -556 514 z m -1210 728 b -1194 714 -1210 718 -1204 714 b -1181 728 -1185 714 -1181 718 b -1194 743 -1181 738 -1185 743 b -1210 728 -1204 743 -1210 738 z m -1336 361 b -1321 347 -1336 351 -1331 347 b -1307 361 -1311 347 -1307 351 b -1321 376 -1307 371 -1311 376 b -1336 361 -1331 376 -1336 371 z m -1250 332 b -1235 318 -1250 322 -1244 318 b -1221 332 -1225 318 -1221 322 b -1235 347 -1221 342 -1225 347 b -1250 332 -1244 347 -1250 342 z m -833 431 b -818 417 -833 421 -828 417 b -804 431 -808 417 -804 421 b -818 446 -804 440 -808 446 b -833 431 -828 446 -833 440 z m -1071 471 b -1056 457 -1071 461 -1065 457 b -1042 471 -1046 457 -1042 461 b -1056 486 -1042 481 -1046 486 b -1071 471 -1065 486 -1071 481 z m -862 654 b -847 640 -862 644 -857 640 b -833 654 -837 640 -833 644 b -847 669 -833 664 -837 669 b -862 654 -857 669 -862 664 z m -237 242 b -222 228 -237 232 -232 228 b -208 242 -212 228 -208 232 b -222 257 -208 251 -212 257 b -237 242 -232 257 -237 251 z m -1181 431 b -1165 417 -1181 421 -1175 417 b -1151 431 -1156 417 -1151 421 b -1165 446 -1151 440 -1156 446 b -1181 431 -1175 446 -1181 440 z m -1001 153 b -986 139 -1001 143 -996 139 b -972 153 -976 139 -972 143 b -986 168 -972 163 -976 168 b -1001 153 -996 168 -1001 163 z m -69 471 b -54 457 -69 461 -64 457 b -40 471 -44 457 -40 461 b -54 486 -40 481 -44 486 b -69 471 -64 486 -69 481 z m -1001 401 b -986 388 -1001 392 -996 388 b -972 401 -976 388 -972 392 b -986 417 -972 411 -976 417 b -1001 401 -996 417 -1001 411 z m -417 610 b -401 596 -417 600 -411 596 b -387 610 -392 596 -387 600 b -401 625 -387 619 -392 625 b -417 610 -411 625 -417 619 z m -1667 749 b -1651 735 -1667 739 -1661 735 b -1637 749 -1642 735 -1637 739 b -1651 764 -1637 758 -1642 764 b -1667 749 -1661 764 -1667 758 z m -793 540 b -778 526 -793 531 -787 526 b -764 540 -768 526 -764 531 b -778 556 -764 550 -768 556 b -793 540 -787 556 -793 550 z m -539 386 b -525 372 -539 376 -535 372 b -511 386 -515 372 -511 376 b -525 400 -511 396 -515 400 b -539 386 -535 400 -539 396 z m -1229 682 b -1217 669 -1229 674 -1225 669 b -1204 682 -1208 669 -1204 674 b -1217 694 -1204 690 -1208 694 b -1229 682 -1225 694 -1229 690 z m -800 221 b -787 208 -800 213 -796 208 b -775 221 -779 208 -775 213 b -787 233 -775 229 -779 233 b -800 221 -796 233 -800 229 z m 322 -57 b 335 -69 322 -65 326 -69 b 347 -57 343 -69 347 -65 b 335 -44 347 -49 343 -44 b 322 -57 326 -44 322 -49 z m -208 474 b -196 461 -208 465 -204 461 b -183 474 -187 461 -183 465 b -196 486 -183 482 -187 486 b -208 474 -204 486 -208 482 z m -368 57 b -356 44 -368 49 -364 44 b -343 57 -347 44 -343 49 b -356 69 -343 65 -347 69 b -368 57 -364 69 -368 65 z m -303 682 b -290 669 -303 674 -299 669 b -278 682 -282 669 -278 674 b -290 694 -278 690 -282 694 b -303 682 -299 694 -303 690 z m -972 290 b -960 278 -972 282 -968 278 b -947 290 -951 278 -947 282 b -960 303 -947 299 -951 303 b -972 290 -968 303 -972 299 z m -94 568 b -82 556 -94 560 -90 556 b -69 568 -74 556 -69 560 b -82 581 -69 576 -74 581 b -94 568 -90 581 -94 576 z m -1356 890 b -1343 878 -1356 882 -1351 878 b -1331 890 -1335 878 -1331 882 b -1343 903 -1331 899 -1335 903 b -1356 890 -1351 903 -1356 899 z m -208 665 b -196 653 -208 657 -204 653 b -183 665 -187 653 -183 657 b -196 678 -183 674 -187 678 b -208 665 -204 678 -208 674 z m -1785 751 b -1772 739 -1785 743 -1781 739 b -1760 751 -1764 739 -1760 743 b -1772 764 -1760 760 -1764 764 b -1785 751 -1781 764 -1785 760 z m -817 356 b -804 344 -817 349 -810 344 b -793 356 -797 344 -793 349 b -804 368 -793 364 -797 368 b -817 356 -810 368 -817 363 z m -882 583 b -869 572 -882 576 -875 572 b -858 583 -862 572 -858 576 b -869 596 -858 592 -862 596 b -882 583 -875 596 -882 590 z m -1528 588 b -1515 576 -1528 581 -1521 576 b -1504 588 -1508 576 -1504 581 b -1515 600 -1504 596 -1508 600 b -1528 588 -1521 600 -1528 594 z m -253 596 b -240 585 -253 589 -246 585 b -229 596 -233 585 -229 589 b -240 608 -229 604 -233 608 b -253 596 -246 608 -253 603 z m -1136 683 b -1125 674 -1136 676 -1132 674 b -1115 683 -1118 674 -1115 676 b -1125 694 -1115 690 -1118 694 b -1136 683 -1132 694 -1136 690 z m -1372 683 b -1361 674 -1372 676 -1368 674 b -1351 683 -1354 674 -1351 676 b -1361 694 -1351 690 -1354 694 b -1372 683 -1368 694 -1372 690 z m -486 614 b -475 604 -486 607 -482 604 b -465 614 -468 604 -465 607 b -475 625 -465 621 -468 625 b -486 614 -482 625 -486 621 z m -376 683 b -365 674 -376 676 -372 674 b -356 683 -358 674 -356 676 b -365 694 -356 690 -358 694 b -376 683 -372 694 -376 690 z m -665 426 b -654 417 -665 419 -661 417 b -644 426 -647 417 -644 419 b -654 438 -644 433 -647 438 b -665 426 -661 438 -665 433 z m 257 369 b 267 360 257 363 260 360 b 278 369 274 360 278 363 b 267 381 278 376 274 381 b 257 369 260 381 257 376 z m -1549 753 b -1537 743 -1549 746 -1544 743 b -1528 753 -1531 743 -1528 746 b -1537 764 -1528 760 -1531 764 b -1549 753 -1544 764 -1549 760 z m 299 594 b 308 585 299 588 301 585 b 318 594 315 585 318 588 b 308 604 318 601 315 604 b 299 594 301 604 299 601 z m 139 182 b 149 172 139 175 142 172 b 158 182 156 172 158 175 b 149 192 158 189 156 192 b 139 182 142 192 139 189 z m -278 799 b -268 789 -278 792 -275 789 b -258 799 -261 789 -258 792 b -268 808 -258 806 -261 808 b -278 799 -275 808 -278 806 z m -735 424 b -725 414 -735 417 -732 414 b -715 424 -718 414 -715 417 b -725 433 -715 431 -718 433 b -735 424 -732 433 -735 431 z m -972 451 b -962 442 -972 444 -969 442 b -953 451 -956 442 -953 444 b -962 461 -953 458 -956 461 b -972 451 -969 461 -972 458 z m -1719 913 b -1710 903 -1719 906 -1717 903 b -1700 913 -1703 903 -1700 906 b -1710 922 -1700 919 -1703 922 b -1719 913 -1717 922 -1719 919 z m -972 729 b -962 719 -972 722 -969 719 b -953 729 -956 719 -953 722 b -962 739 -953 736 -956 739 b -972 729 -969 739 -972 736 z m -982 628 b -965 613 -982 624 -975 613 b -949 628 -956 613 -949 624 b -965 644 -949 632 -954 644 b -982 628 -975 644 -982 632 z m -850 147 b -842 139 -850 142 -847 139 b -833 147 -836 139 -833 142 b -842 156 -833 153 -836 156 b -850 147 -847 156 -850 153 z m 433 739 b 442 731 433 733 436 731 b 450 739 447 731 450 733 b 442 747 450 744 447 747 b 433 739 436 747 433 744 z m -1503 494 b -1494 486 -1503 489 -1500 486 b -1486 494 -1489 486 -1486 489 b -1494 503 -1486 500 -1489 503 b -1503 494 -1500 503 -1503 500 z m -903 28 b -894 19 -903 22 -900 19 b -886 28 -889 19 -886 22 b -894 36 -886 33 -889 36 b -903 28 -900 36 -903 33 z m -1511 928 b -1503 919 -1511 922 -1508 919 b -1494 928 -1497 919 -1494 922 b -1503 936 -1494 933 -1497 936 b -1511 928 -1508 936 -1511 933 z m -694 522 b -686 514 -694 517 -692 514 b -678 522 -681 514 -678 517 b -686 531 -678 528 -681 531 b -694 522 -692 531 -694 528 z m -1267 703 b -1258 694 -1267 697 -1264 694 b -1250 703 -1253 694 -1250 697 b -1258 711 -1250 708 -1253 711 b -1267 703 -1264 711 -1267 708 z m -1250 518 b -1242 511 -1250 514 -1247 511 b -1235 518 -1237 511 -1235 514 b -1242 526 -1235 524 -1237 526 b -1250 518 -1247 526 -1250 524 z m -1360 453 b -1351 446 -1360 449 -1357 446 b -1344 453 -1347 446 -1344 449 b -1351 461 -1344 458 -1347 461 b -1360 453 -1357 461 -1360 458 z m -1267 790 b -1260 785 -1267 786 -1264 785 b -1254 790 -1256 785 -1254 786 b -1260 797 -1254 794 -1256 797 b -1267 790 -1264 797 -1267 794 z m -556 786 b -549 781 -556 782 -553 781 b -543 786 -544 781 -543 782 b -549 793 -543 790 -544 793 b -556 786 -553 793 -556 790 z m -882 311 b -875 306 -882 307 -879 306 b -869 311 -871 306 -869 307 b -875 318 -869 315 -871 318 b -882 311 -879 318 -882 315 z m -1021 597 b -1014 592 -1021 593 -1018 592 b -1008 597 -1010 592 -1008 593 b -1014 604 -1008 601 -1010 604 b -1021 597 -1018 604 -1021 601 z m -665 700 b -660 694 -665 696 -664 694 b -654 700 -656 694 -654 696 b -660 706 -654 704 -656 706 b -665 700 -664 706 -665 704 z m -99 438 b -94 433 -99 435 -97 433 b -90 438 -92 433 -90 435 b -94 442 -90 440 -92 442 b -99 438 -97 442 -99 440 z m 278 40 b 282 36 278 38 279 36 b 286 40 285 36 286 38 b 282 44 286 43 285 44 b 278 40 279 44 278 43 z m -1217 229 b -1212 225 -1217 226 -1215 225 b -1208 229 -1210 225 -1208 226 b -1212 233 -1208 232 -1210 233 b -1217 229 -1215 233 -1217 232 z m -1221 906 b -1217 903 -1221 904 -1219 903 b -1214 906 -1215 903 -1214 904 b -1217 910 -1214 908 -1215 910 b -1221 906 -1219 910 -1221 908 z "},"%":{"ha":0,"x_min":0,"x_max":0,"o":"m 671 33 b 667 49 671 39 669 44 b 654 40 664 43 660 40 b 649 50 650 42 649 46 l 650 57 b 640 51 647 57 644 56 b 624 65 639 57 633 61 b 590 44 606 65 594 58 l 589 38 b 610 10 589 25 599 14 b 617 8 611 10 613 8 b 635 19 626 8 632 13 b 644 14 638 18 640 15 l 650 14 b 671 28 660 14 667 21 z m 913 386 b 914 394 914 388 914 390 b 896 419 914 408 908 417 l 889 421 b 861 399 875 421 865 414 l 861 393 b 881 367 861 381 868 371 b 888 365 882 365 885 365 b 913 386 899 365 908 374 z m 707 58 b 708 64 708 60 708 61 b 696 79 708 71 704 75 l 689 81 l 690 88 b 676 106 690 97 686 103 b 671 107 675 107 674 107 b 651 90 661 107 654 101 l 650 85 b 665 65 650 75 656 68 b 675 64 667 64 671 64 b 686 47 675 54 679 49 b 693 46 688 46 690 46 b 707 58 700 46 706 50 z m 244 106 b 246 113 246 107 246 110 b 226 136 246 125 239 132 b 219 138 225 138 222 138 b 194 119 207 138 199 132 l 194 114 b 213 88 194 103 200 92 b 219 86 214 86 217 86 b 244 106 231 86 240 93 z m 182 650 b 168 672 182 660 178 668 b 142 657 156 672 146 667 b 156 631 142 643 146 635 b 182 650 168 631 178 638 z m 510 157 b 493 175 510 167 503 174 l 488 176 b 472 164 481 176 475 172 b 471 157 471 163 471 160 b 483 140 471 147 475 142 b 490 139 485 139 488 139 b 508 153 500 139 506 143 z m 364 443 b 350 460 364 453 360 458 l 346 461 b 328 447 336 461 331 457 b 340 426 328 435 332 428 b 346 425 342 425 343 425 b 363 439 353 425 358 429 z m 136 169 b 124 183 136 176 132 182 l 118 185 b 101 172 110 185 104 181 b 100 167 100 171 100 169 b 114 150 100 158 104 153 b 135 164 125 150 132 154 z m 343 -10 b 353 -6 350 -10 353 -8 b 336 15 353 0 343 11 b 313 1 324 15 315 11 b 325 -22 313 -11 317 -18 b 343 -10 332 -22 328 -10 z m 953 522 b 939 539 953 532 949 538 b 933 540 938 540 936 540 b 918 529 926 540 922 536 b 929 507 918 514 922 507 b 935 506 931 506 932 506 b 953 522 944 506 950 511 z m 471 225 b 458 242 471 235 467 240 b 453 243 457 243 456 243 b 438 231 446 243 442 239 b 449 208 438 221 442 213 l 454 207 b 471 225 463 207 468 213 z m 693 208 b 681 224 693 215 689 221 b 661 213 671 224 664 219 l 660 208 b 674 192 660 200 664 194 b 692 203 683 192 689 196 z m 306 325 b 293 339 306 332 301 338 l 289 340 b 275 329 282 340 276 336 b 274 324 274 328 274 326 b 285 310 274 314 278 310 b 290 308 286 308 288 308 b 304 321 297 308 303 313 z m 842 331 b 828 344 842 338 838 343 b 822 346 826 346 825 346 b 811 333 817 346 813 342 l 810 328 b 819 315 810 322 813 318 b 825 314 821 314 822 314 b 840 326 833 314 839 318 z m 1089 89 b 1076 106 1089 96 1085 101 b 1057 96 1067 106 1061 103 b 1068 74 1057 83 1061 76 b 1089 89 1078 74 1085 79 z m 861 88 b 850 101 861 94 857 100 l 844 103 b 832 92 838 103 833 99 b 831 86 831 90 831 89 b 842 72 831 79 835 75 l 847 71 b 861 88 854 71 858 76 z m 371 156 b 358 171 371 164 367 169 b 342 160 347 171 342 167 b 340 154 340 158 340 157 b 350 142 340 147 343 143 l 356 140 b 371 156 363 140 368 146 z m -42 753 b -51 767 -42 758 -44 763 b -71 757 -61 767 -67 767 l -72 753 b -58 736 -72 744 -68 739 b -43 749 -50 736 -44 740 z m 744 189 b 733 201 744 194 740 199 l 729 203 b 717 192 722 203 718 199 l 715 188 b 726 175 715 181 719 176 l 731 174 b 743 185 739 174 743 178 z m 719 253 b 707 267 719 260 715 265 b 692 257 699 267 693 264 l 690 251 b 700 240 690 244 693 240 l 704 239 b 719 253 711 239 717 243 z m -17 899 b -28 913 -17 906 -21 911 b -33 914 -29 914 -31 914 b -46 903 -39 914 -43 910 b -36 888 -46 893 -43 889 b -31 886 -35 886 -33 886 b -17 899 -24 886 -18 890 z m 21 731 b 11 743 21 738 18 742 b -7 733 1 743 -4 740 b 3 717 -7 722 -4 717 l 7 715 b 19 726 13 715 19 719 z m -192 199 b -203 213 -192 204 -196 208 b -218 204 -212 213 -217 210 l -219 199 b -211 185 -219 192 -217 186 b -192 199 -201 185 -194 189 z m 811 426 b 800 438 811 432 807 436 b 785 428 792 438 786 435 l 783 424 b 796 411 783 419 788 415 l 800 410 b 810 421 807 410 810 414 z m -25 67 b -35 79 -25 74 -28 78 b -40 81 -36 81 -37 81 b -53 71 -46 81 -50 78 b -43 56 -53 63 -50 57 l -39 54 b -25 67 -32 54 -28 58 z m 304 172 b 293 183 304 178 300 182 b 288 185 292 185 290 185 b 278 174 281 185 278 181 l 276 169 b 289 160 276 164 281 161 b 303 167 299 160 303 163 z m 431 281 b 421 290 431 285 428 289 b 404 282 411 290 406 288 l 403 278 b 413 265 403 271 406 267 b 429 275 419 265 425 268 z m 904 283 b 896 297 904 290 901 294 l 892 299 b 879 288 885 299 881 294 b 889 271 879 279 882 274 b 904 283 897 271 903 275 z m 568 494 b 558 506 568 500 565 504 l 554 507 b 543 496 550 507 546 503 l 542 492 b 550 482 542 485 544 482 b 557 481 551 481 554 481 b 567 489 561 481 565 483 z m 43 161 b 35 172 43 167 40 171 l 29 172 b 18 164 22 172 19 169 l 17 160 b 28 147 17 153 21 149 b 43 161 38 147 42 151 z m 1008 58 b 997 72 1008 64 1004 68 b 982 63 988 72 983 69 b 992 46 982 53 985 47 b 1008 58 1001 46 1004 53 z m 708 -142 b 697 -128 708 -135 704 -131 b 682 -136 688 -128 683 -131 b 690 -151 682 -146 685 -150 b 696 -153 692 -153 694 -153 b 708 -142 703 -153 707 -149 z m 758 299 b 750 311 758 306 756 310 l 744 311 b 733 303 738 311 735 308 b 742 286 733 296 736 290 l 746 285 b 758 299 751 285 756 289 z m 719 306 b 721 311 721 307 721 308 b 713 321 721 315 718 319 l 708 321 l 707 322 b 696 313 701 322 697 319 b 704 296 696 304 699 299 b 719 306 713 296 718 299 z m 725 90 b 717 104 725 92 722 103 b 700 96 707 104 700 100 b 708 79 700 89 701 81 b 725 90 715 79 724 86 z m 842 447 b 831 458 842 453 838 457 b 818 449 825 458 821 456 b 817 444 817 447 817 446 b 826 435 817 439 819 436 b 840 443 836 435 840 438 z m 992 258 b 982 269 992 264 989 268 b 968 260 974 269 969 267 b 975 246 968 251 971 247 b 990 254 983 246 989 249 z m 1513 713 b 1503 724 1513 718 1510 722 b 1489 715 1494 724 1490 721 l 1488 711 b 1496 700 1488 707 1490 704 b 1513 713 1503 700 1508 704 z m 71 406 b 61 417 71 411 68 415 b 47 408 53 417 49 414 l 46 404 b 54 393 46 400 49 397 b 71 406 61 393 67 397 z m 876 -36 b 867 -21 876 -29 874 -25 b 853 -29 860 -21 854 -24 l 851 -33 b 861 -44 851 -37 854 -42 b 876 -36 868 -43 874 -40 z m 826 189 b 817 203 826 196 824 201 b 804 196 808 203 804 200 b 803 189 804 192 803 190 b 810 181 803 185 806 182 l 814 179 b 826 189 818 179 822 182 z m 942 765 b 957 756 944 758 950 756 b 965 767 963 760 965 763 l 964 771 b 950 779 963 776 958 779 b 942 765 944 778 942 772 z m 1217 -144 b 1207 -133 1217 -139 1214 -135 b 1194 -143 1200 -133 1196 -136 b 1200 -157 1194 -153 1196 -157 b 1215 -149 1208 -157 1214 -154 z m 274 586 b 264 597 274 592 271 596 b 251 588 257 597 253 594 b 257 574 251 578 253 574 b 272 582 265 574 271 576 z m 343 626 b 333 638 343 632 340 636 b 321 628 326 638 322 635 b 326 614 321 618 322 614 b 342 622 335 614 340 617 z m 669 696 b 660 707 669 701 667 706 b 647 697 653 707 649 704 b 653 683 647 688 649 683 b 668 692 661 683 667 686 z m 722 635 b 713 646 722 640 719 644 b 700 636 706 646 701 643 b 706 622 700 626 701 622 b 721 631 714 622 719 625 z m 925 681 b 915 692 925 686 922 690 b 903 682 908 692 904 689 b 908 668 903 672 904 668 b 924 676 917 668 922 671 z m 1050 218 b 1040 228 1050 222 1047 226 l 1036 229 b 1028 221 1032 229 1029 226 b 1026 215 1026 219 1026 217 b 1035 207 1026 211 1029 208 l 1039 206 b 1049 214 1042 206 1044 208 z m 789 258 b 779 269 789 264 786 268 b 765 261 772 269 768 267 b 772 247 765 254 768 250 b 789 258 782 247 788 251 z m 443 371 b 435 379 443 375 440 378 b 431 381 433 381 432 381 b 421 372 425 381 422 378 l 419 368 b 428 358 419 365 422 363 b 442 367 438 358 442 361 z m 601 200 b 593 208 601 204 597 207 b 588 210 592 210 590 210 b 579 203 583 210 581 207 l 578 197 b 588 188 578 193 581 189 b 600 196 594 188 599 190 z m 917 199 b 908 210 917 204 914 208 b 896 203 900 210 896 207 l 896 197 b 901 188 896 192 897 189 l 906 186 b 917 199 910 186 914 190 z m 654 272 b 647 283 654 278 651 282 b 632 275 640 283 635 281 b 640 261 632 267 635 263 b 654 272 649 261 653 265 z m 246 539 b 238 553 246 546 243 551 b 224 546 231 553 225 550 b 232 531 224 538 226 532 b 246 539 236 531 244 533 z m 303 226 b 294 236 303 231 299 235 l 290 238 b 279 229 286 238 283 235 b 288 215 279 222 282 217 b 303 226 294 215 300 219 z m 628 97 b 621 107 628 104 625 107 b 615 108 619 108 618 108 b 606 101 611 108 607 106 b 614 86 606 94 608 90 b 628 97 621 86 626 90 z m 789 346 b 790 350 790 347 790 349 b 783 358 790 354 788 357 l 779 360 b 769 351 775 360 771 357 b 776 339 769 344 772 340 b 789 346 783 339 788 342 z m 878 589 b 892 581 881 583 885 581 b 897 589 896 582 897 585 b 896 593 897 590 897 592 b 886 601 896 599 893 601 b 878 589 881 600 878 596 z m 175 371 b 165 383 175 376 172 381 b 154 376 161 383 157 381 b 161 364 154 368 157 364 b 175 371 168 364 172 367 z m 133 229 b 125 239 133 233 131 238 b 115 231 118 239 115 236 b 114 226 114 229 114 228 b 119 218 114 222 115 219 b 133 229 126 218 131 222 z m 1285 675 b 1275 683 1285 681 1282 683 b 1264 676 1265 683 1265 681 b 1271 665 1264 672 1264 669 b 1285 675 1278 665 1282 668 z m 69 326 b 60 335 69 332 67 335 b 49 328 50 335 50 332 b 56 317 49 324 49 321 b 69 326 63 317 67 319 z m 1304 -172 b 1297 -164 1304 -167 1301 -164 b 1285 -169 1290 -164 1286 -165 b 1292 -183 1285 -176 1288 -182 b 1304 -172 1299 -183 1303 -179 z m 810 607 b 803 615 810 613 807 615 b 790 610 796 615 792 614 b 797 596 790 603 793 597 b 810 607 804 596 808 600 z m 1013 653 b 1006 661 1013 658 1010 661 b 993 656 999 661 994 660 b 1000 642 993 649 996 643 b 1013 653 1007 642 1011 646 z m 361 558 b 354 567 361 564 358 567 b 342 561 347 567 343 565 b 349 547 342 554 344 549 b 361 558 356 547 360 551 z m 431 599 b 424 607 431 604 428 607 b 411 601 417 607 413 606 b 418 588 411 594 414 589 b 431 599 425 588 429 592 z m 757 668 b 750 676 757 674 754 676 b 738 671 743 676 739 675 b 744 657 738 664 740 658 b 757 668 751 657 756 661 z m 201 192 b 193 206 201 199 199 204 b 181 197 188 206 183 203 b 188 189 181 192 183 189 b 194 188 189 188 192 188 b 201 192 197 188 200 189 z m 383 654 b 372 664 383 658 376 664 b 364 657 368 664 365 661 b 371 644 364 650 367 646 b 383 654 378 644 382 647 z m 900 -3 b 892 8 900 1 897 4 b 881 0 885 8 882 6 b 886 -10 881 -4 882 -8 b 893 -11 890 -10 892 -11 b 900 -3 897 -11 899 -8 z m -114 889 b -121 896 -114 893 -117 894 b -132 890 -128 896 -131 894 b -133 886 -133 889 -133 888 b -126 878 -133 882 -131 879 l -122 876 b -114 889 -118 876 -115 881 z m 660 331 b 651 340 660 338 657 340 b 640 336 644 340 640 339 b 646 322 640 329 642 324 b 660 331 651 322 656 325 z m 943 686 b 953 679 944 682 949 679 b 963 690 963 683 963 686 b 954 699 961 696 958 699 b 943 686 947 697 943 693 z m 1147 6 b 1139 14 1147 10 1143 14 b 1128 8 1132 14 1128 13 b 1126 4 1126 7 1126 6 b 1132 -4 1126 0 1128 -3 b 1147 6 1139 -4 1143 -1 z m 950 -185 b 943 -178 950 -181 947 -178 b 939 -176 942 -176 940 -176 b 932 -183 936 -176 933 -179 b 939 -196 932 -189 935 -193 b 950 -185 946 -196 950 -192 z m 674 439 b 667 447 674 443 671 446 b 656 442 661 447 657 446 b 661 429 656 433 657 429 l 665 428 b 674 439 669 428 672 432 z m 182 268 b 174 281 182 275 179 279 b 164 275 167 281 164 279 l 163 271 b 168 263 163 269 164 267 b 182 268 175 263 179 264 z m 660 147 b 653 154 660 151 657 154 b 647 156 651 156 650 156 b 642 150 646 156 643 154 b 640 144 640 149 640 146 b 646 138 640 140 642 139 b 660 147 653 138 657 140 z m 1250 503 b 1239 519 1250 510 1246 515 b 1224 511 1232 519 1226 517 z m 1229 567 b 1217 576 1228 574 1224 576 b 1203 561 1207 572 1203 567 z m 257 175 b 247 188 257 179 254 183 b 240 179 246 188 240 185 b 244 171 240 175 242 172 b 257 175 251 171 256 172 z m -156 551 b -160 558 -156 554 -157 557 b -172 553 -167 558 -171 557 b -165 542 -172 549 -169 544 b -156 551 -161 542 -157 544 z m 579 715 b 572 724 579 718 576 721 b 567 722 569 724 568 724 l 563 718 b 568 707 563 711 564 708 b 579 715 572 707 575 710 z m 632 654 b 625 663 632 657 629 660 b 619 661 622 663 621 663 l 615 657 b 621 646 615 650 617 647 b 632 654 625 646 628 649 z m 183 606 b 176 614 183 608 181 611 b 171 613 174 614 172 614 l 167 608 b 172 597 167 601 168 599 b 183 606 176 597 179 600 z m 253 646 b 246 654 253 649 250 651 b 240 653 243 654 242 654 l 236 649 b 242 638 236 642 238 639 b 253 646 246 638 249 640 z m 835 700 b 828 708 835 703 832 706 b 822 707 825 708 824 708 l 818 703 b 824 692 818 696 819 693 b 835 700 828 692 831 694 z m 1126 -125 b 1119 -117 1126 -122 1124 -119 b 1114 -118 1117 -117 1115 -117 l 1110 -122 b 1115 -133 1110 -129 1111 -132 b 1126 -125 1119 -133 1122 -131 z m 1008 -33 b 1001 -26 1008 -32 1006 -29 b 992 -32 994 -26 992 -28 b 997 -42 992 -36 993 -40 b 1008 -33 1003 -42 1007 -39 z m 1221 -282 b 1215 -274 1221 -281 1219 -278 b 1208 -275 1211 -274 1210 -274 l 1204 -279 b 1211 -287 1204 -285 1207 -287 b 1217 -289 1213 -289 1214 -289 b 1221 -282 1218 -289 1219 -286 z m 674 558 b 668 567 674 560 672 563 b 661 565 664 567 663 567 l 657 561 b 664 553 657 556 660 553 b 669 551 665 551 667 551 b 674 558 671 551 672 554 z m 278 449 b 272 457 278 450 276 453 b 265 456 268 457 267 457 l 261 451 b 268 443 261 446 264 443 b 274 442 269 442 271 442 b 278 449 275 442 276 444 z m 347 489 b 342 497 347 490 346 493 b 335 496 338 497 336 497 l 331 492 b 338 483 331 486 333 483 b 343 482 339 482 340 482 b 347 489 344 482 346 485 z m 756 225 b 750 233 756 231 754 233 b 740 229 744 233 742 232 b 746 219 740 224 742 221 b 750 218 747 218 749 218 b 756 225 751 218 754 221 z m -26 668 b -32 674 -26 672 -28 674 b -36 675 -33 675 -35 675 b -42 669 -39 675 -40 674 b -36 660 -42 665 -40 661 b -26 668 -29 660 -26 663 z m 582 299 b 576 307 582 301 581 304 b 567 300 572 307 568 304 b 572 290 567 296 568 293 b 582 299 576 290 581 293 z m -235 392 b -239 397 -235 396 -236 397 b -246 396 -243 397 -244 397 l -250 392 b -246 382 -250 386 -249 383 b -235 392 -240 382 -236 385 z m 1207 699 b 1203 704 1207 703 1206 704 b 1196 703 1199 704 1197 704 l 1192 699 b 1196 689 1192 693 1193 690 b 1207 699 1201 689 1206 692 z m 1246 751 b 1254 744 1247 747 1250 744 b 1261 751 1258 746 1261 747 b 1253 760 1258 757 1256 760 b 1246 751 1249 760 1246 757 z m 829 17 b 822 24 829 19 826 22 b 814 18 818 24 814 22 b 818 8 814 13 815 10 b 829 17 824 8 828 11 z m 528 311 b 522 319 528 314 526 317 b 513 313 518 319 514 317 b 519 304 513 308 518 304 b 528 311 525 304 528 307 z m 353 208 b 347 215 353 211 351 214 b 338 210 340 215 338 214 b 342 201 338 204 339 201 b 353 208 349 201 353 204 z m 696 14 b 690 24 696 19 694 22 b 683 22 686 24 685 24 l 681 19 b 686 11 681 14 682 11 b 690 10 688 10 689 10 b 696 14 692 10 693 11 z m 157 113 b 150 119 157 117 154 119 b 142 114 146 119 143 118 b 147 106 142 110 143 107 b 157 113 151 106 156 108 z m 729 481 b 724 488 729 485 728 488 b 714 485 719 488 715 486 b 719 475 714 479 715 476 b 729 481 724 475 728 476 z m 1075 618 b 1071 624 1075 622 1074 624 b 1063 618 1067 624 1064 622 b 1067 608 1063 613 1064 610 b 1075 618 1069 608 1072 611 z m -367 311 b -371 317 -367 315 -368 317 b -379 311 -375 317 -378 315 b -375 301 -379 306 -378 303 b -367 311 -372 301 -369 304 z m 1061 -249 b 1054 -242 1061 -246 1058 -243 b 1046 -246 1051 -242 1049 -243 b 1051 -254 1047 -250 1050 -253 b 1061 -249 1057 -254 1060 -253 z m 893 843 b 900 839 894 840 896 839 b 908 847 904 840 907 843 b 900 851 906 850 903 851 b 893 843 896 850 893 847 z m 1560 789 b 1553 796 1560 792 1557 794 b 1544 792 1550 796 1547 794 b 1550 783 1546 788 1549 785 b 1560 789 1556 783 1558 785 z m 118 482 b 111 489 118 485 115 488 b 103 485 108 489 106 488 b 108 476 104 481 107 478 b 118 482 114 476 117 478 z m 188 522 b 181 529 188 525 185 528 b 172 525 178 529 175 528 b 178 517 174 521 176 518 b 188 522 183 517 186 518 z m 514 592 b 507 599 514 594 511 597 b 499 594 504 599 501 597 b 504 586 500 590 503 588 b 514 592 510 586 513 588 z m 924 -25 b 919 -19 924 -21 922 -19 b 911 -25 915 -19 913 -21 b 915 -33 911 -29 913 -32 b 924 -25 919 -33 922 -31 z m 951 115 b 946 122 951 118 950 121 b 939 118 942 122 940 121 l 938 114 b 942 110 938 113 939 111 b 951 115 947 110 950 111 z m 1379 671 b 1386 664 1381 667 1383 664 b 1390 672 1389 665 1390 668 b 1382 679 1389 676 1386 679 b 1379 671 1381 679 1379 676 z m 531 232 b 526 238 531 236 529 238 b 517 233 521 238 518 236 b 522 226 517 231 518 228 b 531 232 528 226 531 228 z m 792 563 b 789 568 792 567 790 568 b 781 563 785 568 782 567 b 786 554 781 557 782 554 b 792 563 790 554 792 557 z m 1146 79 b 1142 86 1146 83 1144 85 b 1135 78 1138 86 1135 83 b 1140 75 1135 76 1136 75 b 1146 79 1142 75 1144 76 z m 1047 142 b 1043 147 1047 143 1046 146 b 1036 144 1040 147 1038 146 b 1039 136 1036 139 1038 136 b 1047 142 1043 136 1046 138 z m 906 -93 b 899 -87 906 -89 900 -87 b 894 -92 897 -87 896 -89 b 899 -99 894 -96 896 -99 b 906 -93 903 -99 904 -97 z m 760 106 b 754 110 760 108 758 110 b 750 107 753 110 751 108 b 753 100 750 103 751 100 b 760 106 757 100 758 101 z m 717 351 b 713 356 717 354 715 356 b 708 353 710 356 708 354 b 710 346 708 349 708 347 b 717 351 714 346 717 347 z m 369 63 b 365 65 369 64 368 65 b 361 64 363 65 361 65 l 360 60 b 363 57 360 58 361 57 b 369 63 364 57 367 58 z m 471 104 l 469 106 l 468 108 b 463 104 465 108 464 107 b 467 100 463 101 464 100 z m 915 782 b 918 785 917 782 918 783 b 915 788 918 786 917 788 b 911 783 913 788 911 786 z m 844 -171 b 840 -168 843 -169 842 -168 l 840 -172 b 842 -175 840 -174 840 -175 b 844 -171 843 -175 844 -174 z "},"C":{"ha":542,"x_min":0,"x_max":0,"o":"m 515 69 b 493 188 497 114 493 149 l 493 251 b 504 417 493 329 497 365 b 490 432 504 421 494 432 l 471 410 l 469 400 b 417 196 454 319 443 274 b 283 99 396 144 357 99 b 103 300 139 99 103 196 b 215 496 103 396 156 444 b 457 583 247 528 356 583 b 533 599 506 583 522 589 l 546 625 l -110 625 b -133 611 -119 625 -133 621 b -110 593 -133 596 -119 593 b 206 567 -4 589 104 579 b 32 407 129 535 69 479 b 0 233 10 364 0 324 b 240 0 0 151 79 0 b 396 22 310 0 340 7 l 417 26 b 510 -10 465 22 478 18 l 533 -33 b 563 -60 544 -44 556 -54 b 567 -36 564 -50 567 -46 b 561 -14 567 -29 565 -22 b 515 69 539 15 546 14 z "},"H":{"ha":451,"x_min":0,"x_max":0,"o":"m 285 335 b 136 283 260 317 171 288 b 126 290 129 283 126 286 l 126 314 b 135 508 126 379 131 446 b 151 563 142 526 140 544 b 215 604 158 576 215 590 b 176 632 215 631 193 632 b 99 625 147 632 122 625 l -144 625 b -168 607 -154 625 -168 617 b -165 601 -168 606 -167 603 b -62 583 -147 590 -79 583 l -50 583 b 49 515 -1 583 28 558 l 49 346 b -1 282 40 311 46 282 b -10 283 -4 283 -7 283 b -18 285 -15 283 -18 283 b -28 286 -21 286 -24 286 b -51 269 -39 286 -44 279 b 46 229 -25 249 19 233 b 44 151 46 190 44 167 b 7 17 44 67 29 46 b -1 7 3 13 0 10 b -15 -14 -11 -3 -15 -10 b -6 -29 -15 -15 -12 -21 b 51 4 7 -19 42 0 b 99 14 69 14 92 14 l 186 0 l 200 0 l 204 3 b 124 176 158 53 124 110 l 124 201 b 126 224 124 206 125 214 b 313 278 189 228 253 251 l 313 178 b 247 -21 313 88 310 46 l 238 -31 b 246 -36 238 -36 242 -36 l 261 -36 b 360 25 283 -36 331 18 b 547 49 417 42 482 49 l 576 49 b 604 46 588 49 597 47 l 610 46 b 638 69 625 46 631 63 l 628 69 b 424 94 585 69 508 68 b 399 138 411 104 403 122 b 396 222 397 169 396 197 l 396 364 b 397 435 396 388 396 411 l 397 454 b 417 563 397 492 400 544 b 486 608 426 572 486 594 b 476 632 486 625 483 628 l 374 625 l 271 625 b 254 615 264 625 254 625 b 306 550 271 593 296 576 b 313 492 311 539 313 510 l 313 447 b 307 403 313 432 311 418 b 174 338 300 363 231 349 b 158 317 164 329 158 322 b 171 310 158 313 163 310 l 178 310 b 203 313 185 310 193 311 l 235 319 b 285 335 257 325 275 331 z "}}}
